ISO-10303-21;
HEADER;
FILE_DESCRIPTION (( 'STEP AP214' ),
    '1' );
FILE_NAME ('03129205-32F5-423C-958B-7AA81A7405D0.STEP',
    '2026-09-17T09:33:29',
    ( '' ),
    ( '' ),
    'SwSTEP 2.0',
    'SolidWorks 2022',
    '' );
FILE_SCHEMA (( 'AUTOMOTIVE_DESIGN' ));
ENDSEC;

DATA;
#1 = SURFACE_STYLE_USAGE ( .BOTH. , #1357 ) ;
#2 = ORIENTED_EDGE ( 'NONE', *, *, #835, .F. ) ;
#3 = EDGE_CURVE ( 'NONE', #58, #580, #830, .T. ) ;
#4 = DIRECTION ( 'NONE',  ( 0.0000000000000000000, 0.0000000000000000000, -1.000000000000000000 ) ) ;
#5 = VECTOR ( 'NONE', #1040, 1000.000000000000000 ) ;
#6 = VECTOR ( 'NONE', #837, 1000.000000000000000 ) ;
#7 = DIRECTION ( 'NONE',  ( 1.000000000000000000, 0.0000000000000000000, 0.0000000000000000000 ) ) ;
#8 = VERTEX_POINT ( 'NONE', #65 ) ;
#9 = CARTESIAN_POINT ( 'NONE',  ( -0.9881246098625198204, 0.3249999999999996225, -0.2500000000000000000 ) ) ;
#10 = VECTOR ( 'NONE', #242, 1000.000000000000000 ) ;
#11 = EDGE_CURVE ( 'NONE', #523, #58, #586, .T. ) ;
#12 = DIRECTION ( 'NONE',  ( 1.000000000000000000, 0.0000000000000000000, 0.0000000000000000000 ) ) ;
#13 = ORIENTED_EDGE ( 'NONE', *, *, #463, .T. ) ;
#14 = DIRECTION ( 'NONE',  ( -0.0000000000000000000, -0.0000000000000000000, -1.000000000000000000 ) ) ;
#15 = MANIFOLD_SOLID_BREP ( 'Extruir7', #816 ) ;
#16 = SURFACE_STYLE_FILL_AREA ( #533 ) ;
#17 = DIRECTION ( 'NONE',  ( 0.0000000000000000000, 0.0000000000000000000, 1.000000000000000000 ) ) ;
#18 = EDGE_CURVE ( 'NONE', #416, #286, #592, .T. ) ;
#19 = DIRECTION ( 'NONE',  ( -1.000000000000000000, 0.0000000000000000000, 2.258754526011468228E-16 ) ) ;
#20 = EDGE_LOOP ( 'NONE', ( #460, #1187, #873, #413 ) ) ;
#21 = CARTESIAN_POINT ( 'NONE',  ( 0.5000000000000002220, 0.3499999999999998113, 0.2499999999999999445 ) ) ;
#22 = DIRECTION ( 'NONE',  ( 0.0000000000000000000, 1.000000000000000000, 0.0000000000000000000 ) ) ;
#23 = VECTOR ( 'NONE', #650, 1000.000000000000000 ) ;
#24 = CARTESIAN_POINT ( 'NONE',  ( 0.3000000000000002665, 0.3499999999999999223, 0.2499999999999999445 ) ) ;
#25 = CARTESIAN_POINT ( 'NONE',  ( -0.9881246098625198204, 0.3499999999999996447, 0.2499999999999999445 ) ) ;
#26 = LINE ( 'NONE', #670, #809 ) ;
#27 = ORIENTED_EDGE ( 'NONE', *, *, #117, .T. ) ;
#28 = VECTOR ( 'NONE', #253, 1000.000000000000000 ) ;
#29 = ADVANCED_FACE ( 'NONE', ( #1027 ), #1342, .T. ) ;
#30 = DIRECTION ( 'NONE',  ( -2.168404344971008868E-16, 0.0000000000000000000, -1.000000000000000000 ) ) ;
#31 = VERTEX_POINT ( 'NONE', #194 ) ;
#32 = SURFACE_SIDE_STYLE ('',( #787 ) ) ;
#33 = AXIS2_PLACEMENT_3D ( 'NONE', #368, #684, #1108 ) ;
#34 = FILL_AREA_STYLE_COLOUR ( '', #86 ) ;
#35 = DIRECTION ( 'NONE',  ( -5.421010862427521184E-16, 1.000000000000000000, 1.068631228020261032E-31 ) ) ;
#36 = VERTEX_POINT ( 'NONE', #1131 ) ;
#37 = PRESENTATION_STYLE_ASSIGNMENT (( #791 ) ) ;
#38 = EDGE_CURVE ( 'NONE', #916, #145, #815, .T. ) ;
#39 = CARTESIAN_POINT ( 'NONE',  ( -0.4749999999999999778, 0.3249999999999996780, -0.2500000000000000000 ) ) ;
#40 = VERTEX_POINT ( 'NONE', #180 ) ;
#41 = SURFACE_STYLE_FILL_AREA ( #999 ) ;
#42 = MANIFOLD_SOLID_BREP ( 'Extruir10[2]', #701 ) ;
#43 = DIRECTION ( 'NONE',  ( -1.000000000000000000, 0.0000000000000000000, 1.971276677246371519E-16 ) ) ;
#44 = CARTESIAN_POINT ( 'NONE',  ( 0.5000000000000002220, -8.416832654821682338E-17, 0.2499999999999999445 ) ) ;
#45 = ORIENTED_EDGE ( 'NONE', *, *, #524, .F. ) ;
#46 = PLANE ( 'NONE',  #53 ) ;
#47 = ORIENTED_EDGE ( 'NONE', *, *, #38, .F. ) ;
#48 =( GEOMETRIC_REPRESENTATION_CONTEXT ( 3 ) GLOBAL_UNCERTAINTY_ASSIGNED_CONTEXT ( ( #883 ) ) GLOBAL_UNIT_ASSIGNED_CONTEXT ( ( #844, #935, #1145 ) ) REPRESENTATION_CONTEXT ( 'NONE', 'WORKASPACE' ) );
#49 = EDGE_CURVE ( 'NONE', #1281, #998, #1350, .T. ) ;
#50 = DIRECTION ( 'NONE',  ( 0.0000000000000000000, 0.0000000000000000000, -1.000000000000000000 ) ) ;
#51 = CARTESIAN_POINT ( 'NONE',  ( -0.3000000000000002665, 0.3250000000000000666, 0.1849999999999999423 ) ) ;
#52 = ORIENTED_EDGE ( 'NONE', *, *, #272, .F. ) ;
#53 = AXIS2_PLACEMENT_3D ( 'NONE', #70, #805, #478 ) ;
#54 = COLOUR_RGB ( '',0.8980392156862745390, 0.9176470588235293713, 0.9294117647058823817 ) ;
#55 = DIRECTION ( 'NONE',  ( 1.000000000000000000, 4.517509052022935470E-16, 2.258754526011467735E-16 ) ) ;
#56 = AXIS2_PLACEMENT_3D ( 'NONE', #1230, #829, #285 ) ;
#57 = CARTESIAN_POINT ( 'NONE',  ( -0.2500000000000001665, 0.01250000000000008743, 0.0000000000000000000 ) ) ;
#58 = VERTEX_POINT ( 'NONE', #646 ) ;
#59 =( NAMED_UNIT ( * ) SI_UNIT ( $, .STERADIAN. ) SOLID_ANGLE_UNIT ( ) );
#60 = LINE ( 'NONE', #273, #649 ) ;
#61 = CARTESIAN_POINT ( 'NONE',  ( -0.4750000000000001443, 0.02500000000000000139, 0.2499999999999999445 ) ) ;
#62 = EDGE_CURVE ( 'NONE', #165, #244, #445, .T. ) ;
#63 = ORIENTED_EDGE ( 'NONE', *, *, #653, .F. ) ;
#64 = VECTOR ( 'NONE', #1371, 1000.000000000000000 ) ;
#65 = CARTESIAN_POINT ( 'NONE',  ( 0.2999999999815372576, 0.3499999999999999778, -0.2500000000000001110 ) ) ;
#66 = ORIENTED_EDGE ( 'NONE', *, *, #297, .T. ) ;
#67 = LINE ( 'NONE', #476, #627 ) ;
#68 = ORIENTED_EDGE ( 'NONE', *, *, #1278, .T. ) ;
#69 = EDGE_CURVE ( 'NONE', #908, #842, #334, .T. ) ;
#70 = CARTESIAN_POINT ( 'NONE',  ( 0.9881246098625198204, 0.3499999999999995337, -0.2500000000000000000 ) ) ;
#71 = ORIENTED_EDGE ( 'NONE', *, *, #726, .T. ) ;
#72 = ORIENTED_EDGE ( 'NONE', *, *, #1050, .T. ) ;
#73 = FACE_OUTER_BOUND ( 'NONE', #1196, .T. ) ;
#74 = CARTESIAN_POINT ( 'NONE',  ( 500000.0000000000582, 0.3499999999999999778, -0.2500000000985638793 ) ) ;
#75 = ORIENTED_EDGE ( 'NONE', *, *, #958, .F. ) ;
#76 = MECHANICAL_DESIGN_GEOMETRIC_PRESENTATION_REPRESENTATION (  '', ( #596 ), #1173 ) ;
#77 = SURFACE_STYLE_FILL_AREA ( #1339 ) ;
#78 = AXIS2_PLACEMENT_3D ( 'NONE', #1117, #591, #487 ) ;
#79 = DIRECTION ( 'NONE',  ( 1.000000000000000000, -1.141265444721583757E-16, 0.0000000000000000000 ) ) ;
#80 = ADVANCED_FACE ( 'NONE', ( #1304 ), #1367, .F. ) ;
#81 = VECTOR ( 'NONE', #1275, 1000.000000000000000 ) ;
#82 = ORIENTED_EDGE ( 'NONE', *, *, #709, .T. ) ;
#83 = DIRECTION ( 'NONE',  ( -0.0000000000000000000, -1.000000000000000000, -0.0000000000000000000 ) ) ;
#84 = ORIENTED_EDGE ( 'NONE', *, *, #590, .F. ) ;
#85 = DIRECTION ( 'NONE',  ( 0.0000000000000000000, 0.0000000000000000000, -1.000000000000000000 ) ) ;
#86 = COLOUR_RGB ( '',0.8980392156862745390, 0.9176470588235293713, 0.9294117647058823817 ) ;
#87 = STYLED_ITEM ( 'NONE', ( #415 ), #326 ) ;
#88 = APPLICATION_PROTOCOL_DEFINITION ( 'draft international standard', 'automotive_design', 1998, #568 ) ;
#89 = EDGE_CURVE ( 'NONE', #376, #780, #1297, .T. ) ;
#90 = EDGE_LOOP ( 'NONE', ( #1351, #886, #671, #785 ) ) ;
#91 = DIRECTION ( 'NONE',  ( 0.0000000000000000000, 0.0000000000000000000, 1.000000000000000000 ) ) ;
#92 = PRESENTATION_STYLE_ASSIGNMENT (( #410 ) ) ;
#93 = LINE ( 'NONE', #697, #5 ) ;
#94 = FILL_AREA_STYLE ('',( #488 ) ) ;
#95 = ORIENTED_EDGE ( 'NONE', *, *, #610, .T. ) ;
#96 = CARTESIAN_POINT ( 'NONE',  ( -0.4749999999999997558, 0.3499999999999999778, 0.2500000000000000000 ) ) ;
#97 = CARTESIAN_POINT ( 'NONE',  ( -0.4750000000000001443, 0.3250000000000000111, 0.2499999999999999445 ) ) ;
#98 = EDGE_CURVE ( 'NONE', #926, #998, #1177, .T. ) ;
#99 = FILL_AREA_STYLE_COLOUR ( '', #1321 ) ;
#100 = AXIS2_PLACEMENT_3D ( 'NONE', #337, #751, #435 ) ;
#101 = VECTOR ( 'NONE', #1217, 1000.000000000000000 ) ;
#102 = AXIS2_PLACEMENT_3D ( 'NONE', #255, #153, #692 ) ;
#103 = ORIENTED_EDGE ( 'NONE', *, *, #234, .T. ) ;
#104 = LINE ( 'NONE', #183, #1134 ) ;
#105 = VECTOR ( 'NONE', #1195, 1000.000000000000000 ) ;
#106 = CARTESIAN_POINT ( 'NONE',  ( 0.4749999999999998113, 0.02500000000000000139, -0.2500000000000000555 ) ) ;
#107 = EDGE_CURVE ( 'NONE', #348, #278, #772, .T. ) ;
#108 = ORIENTED_EDGE ( 'NONE', *, *, #69, .T. ) ;
#109 = FILL_AREA_STYLE ('',( #34 ) ) ;
#110 = CARTESIAN_POINT ( 'NONE',  ( -0.2500000000000001665, 5.421010862427522170E-17, -0.2499999999999999445 ) ) ;
#111 = CARTESIAN_POINT ( 'NONE',  ( 0.4749999999999998113, 0.02500000000000000139, -0.2500000000000000555 ) ) ;
#112 = DIRECTION ( 'NONE',  ( -5.706327223607918787E-17, -1.000000000000000000, 0.0000000000000000000 ) ) ;
#113 = FILL_AREA_STYLE_COLOUR ( '', #483 ) ;
#114 = CARTESIAN_POINT ( 'NONE',  ( 0.4749999999999998113, 0.02500000000000000139, 0.2499999999999999445 ) ) ;
#115 = VERTEX_POINT ( 'NONE', #1311 ) ;
#116 = EDGE_CURVE ( 'NONE', #115, #916, #303, .T. ) ;
#117 = EDGE_CURVE ( 'NONE', #1034, #985, #1152, .T. ) ;
#118 = CARTESIAN_POINT ( 'NONE',  ( -0.9881246098625198204, 0.3249999999999996225, 0.2500000000000000000 ) ) ;
#119 =( NAMED_UNIT ( * ) SI_UNIT ( $, .STERADIAN. ) SOLID_ANGLE_UNIT ( ) );
#120 = ORIENTED_EDGE ( 'NONE', *, *, #541, .F. ) ;
#121 = EDGE_CURVE ( 'NONE', #182, #472, #984, .T. ) ;
#122 = DIRECTION ( 'NONE',  ( 0.0000000000000000000, -0.0000000000000000000, 1.000000000000000000 ) ) ;
#123 = VECTOR ( 'NONE', #179, 1000.000000000000000 ) ;
#124 = COLOUR_RGB ( '',0.8980392156862745390, 0.9176470588235293713, 0.9294117647058823817 ) ;
#125 = DIRECTION ( 'NONE',  ( -0.0000000000000000000, -0.0000000000000000000, 1.000000000000000000 ) ) ;
#126 = ORIENTED_EDGE ( 'NONE', *, *, #98, .F. ) ;
#127 = CARTESIAN_POINT ( 'NONE',  ( 0.4199999999999998734, 0.3250000000000004552, -0.2499999999999997224 ) ) ;
#128 = AXIS2_PLACEMENT_3D ( 'NONE', #74, #920, #390 ) ;
#129 = CARTESIAN_POINT ( 'NONE',  ( 0.5000000000000002220, -2.853163611803991980E-18, -0.2499999999999999445 ) ) ;
#130 = ORIENTED_EDGE ( 'NONE', *, *, #1271, .T. ) ;
#131 = LINE ( 'NONE', #560, #662 ) ;
#132 = DIRECTION ( 'NONE',  ( 0.0000000000000000000, 1.000000000000000000, -2.168404344971008079E-15 ) ) ;
#133 = CARTESIAN_POINT ( 'NONE',  ( 0.4750000000000002554, 0.02499999999999990424, -0.2500000000000000000 ) ) ;
#134 = CARTESIAN_POINT ( 'NONE',  ( -0.4750000000000000333, 0.3249999999999999001, 0.2500000000000000000 ) ) ;
#135 = DIRECTION ( 'NONE',  ( -2.258754526011468228E-16, -1.558420540862883820E-32, -1.000000000000000000 ) ) ;
#136 = ORIENTED_EDGE ( 'NONE', *, *, #1244, .F. ) ;
#137 = STYLED_ITEM ( 'NONE', ( #420 ), #361 ) ;
#138 = ORIENTED_EDGE ( 'NONE', *, *, #604, .T. ) ;
#139 = PLANE ( 'NONE',  #1322 ) ;
#140 = AXIS2_PLACEMENT_3D ( 'NONE', #850, #645, #753 ) ;
#141 = DIRECTION ( 'NONE',  ( 2.168404344971008868E-16, -0.0000000000000000000, 1.000000000000000000 ) ) ;
#142 = DIRECTION ( 'NONE',  ( -0.0000000000000000000, -0.0000000000000000000, 1.000000000000000000 ) ) ;
#143 = MECHANICAL_DESIGN_GEOMETRIC_PRESENTATION_REPRESENTATION (  '', ( #1113 ), #786 ) ;
#144 = EDGE_CURVE ( 'NONE', #797, #189, #1098, .T. ) ;
#145 = VERTEX_POINT ( 'NONE', #203 ) ;
#146 = LINE ( 'NONE', #1215, #1094 ) ;
#147 = PLANE ( 'NONE',  #673 ) ;
#148 = LINE ( 'NONE', #164, #1033 ) ;
#149 = VERTEX_POINT ( 'NONE', #879 ) ;
#150 = EDGE_CURVE ( 'NONE', #244, #679, #765, .T. ) ;
#151 = CARTESIAN_POINT ( 'NONE',  ( 0.9881246098625198204, 0.3249999999999995115, 0.2500000000000000000 ) ) ;
#152 = EDGE_LOOP ( 'NONE', ( #1014, #820, #699, #921 ) ) ;
#153 = DIRECTION ( 'NONE',  ( -1.422966845732242210E-30, -2.168404344971008079E-15, -1.000000000000000000 ) ) ;
#154 = LINE ( 'NONE', #565, #226 ) ;
#155 = DIRECTION ( 'NONE',  ( -0.0000000000000000000, -1.000000000000000000, -0.0000000000000000000 ) ) ;
#156 = ORIENTED_EDGE ( 'NONE', *, *, #996, .T. ) ;
#157 = UNCERTAINTY_MEASURE_WITH_UNIT (LENGTH_MEASURE( 1.000000000000000082E-05 ), #497, 'distance_accuracy_value', 'NONE');
#158 = CARTESIAN_POINT ( 'NONE',  ( 0.5000000000000002220, 0.3499999999999998113, -0.2499999999999999445 ) ) ;
#159 = ADVANCED_FACE ( 'NONE', ( #517 ), #147, .F. ) ;
#160 = ORIENTED_EDGE ( 'NONE', *, *, #1032, .F. ) ;
#161 = FILL_AREA_STYLE_COLOUR ( '', #54 ) ;
#162 = VECTOR ( 'NONE', #1047, 1000.000000000000000 ) ;
#163 = PLANE ( 'NONE',  #128 ) ;
#164 = CARTESIAN_POINT ( 'NONE',  ( -0.3000000000000002665, 0.3250000000000000666, 0.1849999999999999423 ) ) ;
#165 = VERTEX_POINT ( 'NONE', #134 ) ;
#166 = STYLED_ITEM ( 'NONE', ( #92 ), #865 ) ;
#167 =( GEOMETRIC_REPRESENTATION_CONTEXT ( 3 ) GLOBAL_UNCERTAINTY_ASSIGNED_CONTEXT ( ( #245 ) ) GLOBAL_UNIT_ASSIGNED_CONTEXT ( ( #1337, #1088, #475 ) ) REPRESENTATION_CONTEXT ( 'NONE', 'WORKASPACE' ) );
#168 = VECTOR ( 'NONE', #681, 1000.000000000000000 ) ;
#169 =( NAMED_UNIT ( * ) PLANE_ANGLE_UNIT ( ) SI_UNIT ( $, .RADIAN. ) );
#170 = VERTEX_POINT ( 'NONE', #341 ) ;
#171 = CARTESIAN_POINT ( 'NONE',  ( -0.4200000000000002620, 0.3499999999999999223, -0.2499999999999997224 ) ) ;
#172 = DIRECTION ( 'NONE',  ( 5.421010862427521184E-16, -1.000000000000000000, 0.0000000000000000000 ) ) ;
#173 = ORIENTED_EDGE ( 'NONE', *, *, #1171, .T. ) ;
#174 = COLOUR_RGB ( '',0.8980392156862745390, 0.9176470588235293713, 0.9294117647058823817 ) ;
#175 = EDGE_LOOP ( 'NONE', ( #210, #422, #466, #1232 ) ) ;
#176 = PLANE ( 'NONE',  #424 ) ;
#177 = ORIENTED_EDGE ( 'NONE', *, *, #534, .F. ) ;
#178 = EDGE_CURVE ( 'NONE', #149, #170, #1089, .T. ) ;
#179 = DIRECTION ( 'NONE',  ( -5.421010862427521184E-16, 1.000000000000000000, 1.068631228020261032E-31 ) ) ;
#180 = CARTESIAN_POINT ( 'NONE',  ( 0.3000000000000002665, 0.3249999999999999556, -0.1849999999999997202 ) ) ;
#181 = SHAPE_DEFINITION_REPRESENTATION ( #1139, #1068 ) ;
#182 = VERTEX_POINT ( 'NONE', #959 ) ;
#183 = CARTESIAN_POINT ( 'NONE',  ( -0.4200000000000002620, 0.3250000000000000666, 0.1849999999999999700 ) ) ;
#184 = SURFACE_STYLE_FILL_AREA ( #1038 ) ;
#185 = ORIENTED_EDGE ( 'NONE', *, *, #884, .F. ) ;
#186 = CARTESIAN_POINT ( 'NONE',  ( -0.4750000000000001443, 0.3250000000000000111, -0.2500000000000000555 ) ) ;
#187 = AXIS2_PLACEMENT_3D ( 'NONE', #941, #1259, #287 ) ;
#188 = ADVANCED_FACE ( 'NONE', ( #550 ), #1061, .F. ) ;
#189 = VERTEX_POINT ( 'NONE', #265 ) ;
#190 = SURFACE_SIDE_STYLE ('',( #1143 ) ) ;
#191 = LINE ( 'NONE', #1250, #506 ) ;
#192 = LINE ( 'NONE', #514, #1254 ) ;
#193 = LINE ( 'NONE', #834, #689 ) ;
#194 = CARTESIAN_POINT ( 'NONE',  ( 0.2999999999999998779, 0.3500000000000003109, -0.1849999999999997757 ) ) ;
#195 = ADVANCED_FACE ( 'NONE', ( #802 ), #163, .F. ) ;
#196 = EDGE_CURVE ( 'NONE', #1045, #8, #1006, .T. ) ;
#197 = LINE ( 'NONE', #97, #833 ) ;
#198 =( LENGTH_UNIT ( ) NAMED_UNIT ( * ) SI_UNIT ( .MILLI., .METRE. ) );
#199 = CARTESIAN_POINT ( 'NONE',  ( 0.4199999999999998179, 0.3250000000000004552, 0.2499999999999999445 ) ) ;
#200 = ORIENTED_EDGE ( 'NONE', *, *, #1090, .F. ) ;
#201 = CARTESIAN_POINT ( 'NONE',  ( -0.2500000000000002776, -2.710505431213761085E-17, 0.2499999999999999445 ) ) ;
#202 = EDGE_CURVE ( 'NONE', #1045, #170, #1242, .T. ) ;
#203 = CARTESIAN_POINT ( 'NONE',  ( 0.2500000000000002776, -5.563669043017724793E-17, 0.2499999999999999445 ) ) ;
#204 = VECTOR ( 'NONE', #142, 1000.000000000000000 ) ;
#205 = DIRECTION ( 'NONE',  ( -1.000000000000000000, 0.0000000000000000000, 2.168404344971008868E-16 ) ) ;
#206 = LINE ( 'NONE', #624, #919 ) ;
#207 = VECTOR ( 'NONE', #1303, 1000.000000000000000 ) ;
#208 = PLANE ( 'NONE',  #641 ) ;
#209 = CARTESIAN_POINT ( 'NONE',  ( 0.2500000000000001665, 0.1749999999999998224, -0.2500000000000000000 ) ) ;
#210 = ORIENTED_EDGE ( 'NONE', *, *, #116, .T. ) ;
#211 = PRODUCT ( '03129205-32F5-423C-958B-7AA81A7405D0', '03129205-32F5-423C-958B-7AA81A7405D0', '', ( #1043 ) ) ;
#212 = CLOSED_SHELL ( 'NONE', ( #370, #1222, #1122, #1220, #847, #1003, #561, #1169, #379, #1262, #841, #252, #80, #672 ) ) ;
#213 = CARTESIAN_POINT ( 'NONE',  ( 0.3000000000000002665, 0.3499999999999999223, -0.2500000000000000000 ) ) ;
#214 = DIRECTION ( 'NONE',  ( 1.000000000000000000, 4.517509052022935470E-16, -2.258754526011467735E-16 ) ) ;
#215 = DIRECTION ( 'NONE',  ( -1.000000000000000000, 1.141265444721583757E-16, 0.0000000000000000000 ) ) ;
#216 = ORIENTED_EDGE ( 'NONE', *, *, #11, .F. ) ;
#217 = FACE_OUTER_BOUND ( 'NONE', #743, .T. ) ;
#218 = LINE ( 'NONE', #1316, #1179 ) ;
#219 = CARTESIAN_POINT ( 'NONE',  ( -0.3000000000000001554, 0.3499999999999999778, 0.2499999999999999445 ) ) ;
#220 = ORIENTED_EDGE ( 'NONE', *, *, #328, .F. ) ;
#221 = CARTESIAN_POINT ( 'NONE',  ( 0.4199999999999998734, 0.3250000000000004552, -0.1849999999999998035 ) ) ;
#222 = VECTOR ( 'NONE', #457, 1000.000000000000000 ) ;
#223 = SURFACE_STYLE_USAGE ( .BOTH. , #858 ) ;
#224 = VERTEX_POINT ( 'NONE', #583 ) ;
#225 = DIRECTION ( 'NONE',  ( -0.0000000000000000000, 0.0000000000000000000, 1.000000000000000000 ) ) ;
#226 = VECTOR ( 'NONE', #50, 1000.000000000000000 ) ;
#227 = MECHANICAL_DESIGN_GEOMETRIC_PRESENTATION_REPRESENTATION (  '', ( #87 ), #48 ) ;
#228 = SURFACE_SIDE_STYLE ('',( #16 ) ) ;
#229 = CARTESIAN_POINT ( 'NONE',  ( 500000.0000000000582, 0.3250000000000000111, 0.2499999999014360652 ) ) ;
#230 = LINE ( 'NONE', #360, #640 ) ;
#231 = ORIENTED_EDGE ( 'NONE', *, *, #1147, .F. ) ;
#232 = LINE ( 'NONE', #674, #168 ) ;
#233 = SURFACE_STYLE_USAGE ( .BOTH. , #228 ) ;
#234 = EDGE_CURVE ( 'NONE', #548, #817, #695, .T. ) ;
#235 = CARTESIAN_POINT ( 'NONE',  ( -0.4200000000000002620, 0.3250000000000000666, -0.2499999999999997224 ) ) ;
#236 = DIRECTION ( 'NONE',  ( 0.0000000000000000000, 0.0000000000000000000, 1.000000000000000000 ) ) ;
#237 = ORIENTED_EDGE ( 'NONE', *, *, #1301, .T. ) ;
#238 = ORIENTED_EDGE ( 'NONE', *, *, #524, .T. ) ;
#239 = DIRECTION ( 'NONE',  ( 1.000000000000000000, 0.0000000000000000000, -2.168404344971008868E-16 ) ) ;
#240 = VECTOR ( 'NONE', #35, 1000.000000000000000 ) ;
#241 = STYLED_ITEM ( 'NONE', ( #1005 ), #997 ) ;
#242 = DIRECTION ( 'NONE',  ( -5.421010862427521184E-16, 1.000000000000000000, 1.068631228020261032E-31 ) ) ;
#243 = ADVANCED_FACE ( 'NONE', ( #557 ), #1023, .F. ) ;
#244 = VERTEX_POINT ( 'NONE', #456 ) ;
#245 = UNCERTAINTY_MEASURE_WITH_UNIT (LENGTH_MEASURE( 1.000000000000000082E-05 ), #1337, 'distance_accuracy_value', 'NONE');
#246 = CARTESIAN_POINT ( 'NONE',  ( 0.3000000000000002665, 0.3249999999999999556, 0.2500000000000000000 ) ) ;
#247 = VERTEX_POINT ( 'NONE', #1208 ) ;
#248 = LINE ( 'NONE', #450, #573 ) ;
#249 = DIRECTION ( 'NONE',  ( -1.000000000000000000, -5.421010862427521184E-16, 0.0000000000000000000 ) ) ;
#250 = LINE ( 'NONE', #1103, #1011 ) ;
#251 = ORIENTED_EDGE ( 'NONE', *, *, #1343, .F. ) ;
#252 = ADVANCED_FACE ( 'NONE', ( #1115 ), #892, .F. ) ;
#253 = DIRECTION ( 'NONE',  ( 1.141265444721583757E-16, 1.000000000000000000, -2.168404344971008079E-15 ) ) ;
#254 = EDGE_LOOP ( 'NONE', ( #274, #388, #766, #238, #177, #220, #1348, #1320 ) ) ;
#255 = CARTESIAN_POINT ( 'NONE',  ( 0.9881246098625198204, 0.3249999999999995115, 0.2500000000000000000 ) ) ;
#256 = DIRECTION ( 'NONE',  ( -1.000000000000000000, 6.562276307149104695E-16, 0.0000000000000000000 ) ) ;
#257 = FACE_OUTER_BOUND ( 'NONE', #813, .T. ) ;
#258 = EDGE_LOOP ( 'NONE', ( #1210, #120, #749, #1142 ) ) ;
#259 = SURFACE_SIDE_STYLE ('',( #473 ) ) ;
#260 = EDGE_CURVE ( 'NONE', #1243, #691, #67, .T. ) ;
#261 = CARTESIAN_POINT ( 'NONE',  ( 0.5000000000000002220, 0.3499999999999998113, -0.2499999999999999445 ) ) ;
#262 = ORIENTED_EDGE ( 'NONE', *, *, #709, .F. ) ;
#263 = PLANE ( 'NONE',  #1341 ) ;
#264 = VECTOR ( 'NONE', #236, 1000.000000000000000 ) ;
#265 = CARTESIAN_POINT ( 'NONE',  ( -0.4200000000000002620, 0.3499999999999999223, -0.1849999999999998035 ) ) ;
#266 = ORIENTED_EDGE ( 'NONE', *, *, #1317, .T. ) ;
#267 = MECHANICAL_DESIGN_GEOMETRIC_PRESENTATION_REPRESENTATION (  '', ( #166 ), #1057 ) ;
#268 = VECTOR ( 'NONE', #762, 1000.000000000000000 ) ;
#269 = FACE_OUTER_BOUND ( 'NONE', #254, .T. ) ;
#270 = EDGE_LOOP ( 'NONE', ( #356, #481, #302, #657 ) ) ;
#271 = PLANE ( 'NONE',  #311 ) ;
#272 = EDGE_CURVE ( 'NONE', #1034, #1274, #470, .T. ) ;
#273 = CARTESIAN_POINT ( 'NONE',  ( -0.5000000000000002220, 5.421010862427522170E-17, 0.2499999999999999445 ) ) ;
#274 = ORIENTED_EDGE ( 'NONE', *, *, #121, .T. ) ;
#275 = AXIS2_PLACEMENT_3D ( 'NONE', #412, #1190, #1269 ) ;
#276 = DIRECTION ( 'NONE',  ( -5.421010862427521184E-16, 1.000000000000000000, 1.068631228020261032E-31 ) ) ;
#277 = UNCERTAINTY_MEASURE_WITH_UNIT (LENGTH_MEASURE( 1.000000000000000082E-05 ), #459, 'distance_accuracy_value', 'NONE');
#278 = VERTEX_POINT ( 'NONE', #1233 ) ;
#279 =( LENGTH_UNIT ( ) NAMED_UNIT ( * ) SI_UNIT ( .MILLI., .METRE. ) );
#280 = DIRECTION ( 'NONE',  ( 1.141265444721583511E-16, 1.000000000000000000, -0.0000000000000000000 ) ) ;
#281 = EDGE_CURVE ( 'NONE', #398, #1028, #154, .T. ) ;
#282 = ORIENTED_EDGE ( 'NONE', *, *, #653, .T. ) ;
#283 = CARTESIAN_POINT ( 'NONE',  ( -0.2500000000000001665, 0.02499999999999995628, -0.2500000000000000000 ) ) ;
#284 = SURFACE_SIDE_STYLE ('',( #828 ) ) ;
#285 = DIRECTION ( 'NONE',  ( 1.000000000000000000, 0.0000000000000000000, 0.0000000000000000000 ) ) ;
#286 = VERTEX_POINT ( 'NONE', #1216 ) ;
#287 = DIRECTION ( 'NONE',  ( 1.000000000000000000, 0.0000000000000000000, -1.141265444721583757E-16 ) ) ;
#288 = EDGE_CURVE ( 'NONE', #468, #1290, #60, .T. ) ;
#289 = VECTOR ( 'NONE', #125, 1000.000000000000000 ) ;
#290 = STYLED_ITEM ( 'NONE', ( #878 ), #944 ) ;
#291 = COLOUR_RGB ( '',0.8980392156862745390, 0.9176470588235293713, 0.9294117647058823817 ) ;
#292 = DIRECTION ( 'NONE',  ( -5.421010862427521184E-16, 1.000000000000000000, 1.068631228020261032E-31 ) ) ;
#293 = DIRECTION ( 'NONE',  ( 1.000000000000000000, 0.0000000000000000000, -0.0000000000000000000 ) ) ;
#294 = DIRECTION ( 'NONE',  ( 1.000000000000000000, 0.0000000000000000000, 0.0000000000000000000 ) ) ;
#295 = FACE_OUTER_BOUND ( 'NONE', #630, .T. ) ;
#296 = VECTOR ( 'NONE', #256, 1000.000000000000000 ) ;
#297 = EDGE_CURVE ( 'NONE', #343, #908, #1121, .T. ) ;
#298 = ORIENTED_EDGE ( 'NONE', *, *, #825, .T. ) ;
#299 = PLANE ( 'NONE',  #897 ) ;
#300 = CARTESIAN_POINT ( 'NONE',  ( 0.4199999999999998734, 0.3500000000000003664, -0.2499999999999997224 ) ) ;
#301 = DIRECTION ( 'NONE',  ( -5.421010862427521184E-16, 1.000000000000000000, 1.068631228020261032E-31 ) ) ;
#302 = ORIENTED_EDGE ( 'NONE', *, *, #690, .F. ) ;
#303 = LINE ( 'NONE', #669, #429 ) ;
#304 = ORIENTED_EDGE ( 'NONE', *, *, #49, .T. ) ;
#305 = LINE ( 'NONE', #752, #1037 ) ;
#306 = PLANE ( 'NONE',  #1295 ) ;
#307 = ORIENTED_EDGE ( 'NONE', *, *, #1244, .T. ) ;
#308 = COLOUR_RGB ( '',0.8980392156862745390, 0.9176470588235293713, 0.9294117647058823817 ) ;
#309 = PRESENTATION_LAYER_ASSIGNMENT (  '', '', ( #166 ) ) ;
#310 = CARTESIAN_POINT ( 'NONE',  ( 0.4750000000000001998, 0.3499999999999999778, 0.2499999999999998890 ) ) ;
#311 = AXIS2_PLACEMENT_3D ( 'NONE', #482, #1257, #606 ) ;
#312 = DIRECTION ( 'NONE',  ( 1.000000000000000000, 4.517509052022935470E-16, -2.258754526011467735E-16 ) ) ;
#313 = ADVANCED_FACE ( 'NONE', ( #899 ), #1326, .F. ) ;
#314 = ORIENTED_EDGE ( 'NONE', *, *, #635, .T. ) ;
#315 = PRESENTATION_LAYER_ASSIGNMENT (  '', '', ( #629 ) ) ;
#316 = DIRECTION ( 'NONE',  ( -1.000000000000000000, 0.0000000000000000000, 1.141265444721583757E-16 ) ) ;
#317 = FILL_AREA_STYLE ('',( #747 ) ) ;
#318 = EDGE_CURVE ( 'NONE', #580, #563, #715, .T. ) ;
#319 = CARTESIAN_POINT ( 'NONE',  ( 0.4199999999999998179, 0.3500000000000003664, 0.1849999999999999700 ) ) ;
#320 = EDGE_LOOP ( 'NONE', ( #136, #1119, #439, #633 ) ) ;
#321 = PLANE ( 'NONE',  #100 ) ;
#322 = CARTESIAN_POINT ( 'NONE',  ( 500000.0000000000582, 0.3250000000000000111, 0.2499999999014360652 ) ) ;
#323 =( NAMED_UNIT ( * ) SI_UNIT ( $, .STERADIAN. ) SOLID_ANGLE_UNIT ( ) );
#324 = LINE ( 'NONE', #647, #1072 ) ;
#325 = ORIENTED_EDGE ( 'NONE', *, *, #89, .F. ) ;
#326 = ADVANCED_FACE ( 'NONE', ( #295 ), #943, .F. ) ;
#327 = DIRECTION ( 'NONE',  ( 2.168404344971008868E-16, 0.0000000000000000000, 1.000000000000000000 ) ) ;
#328 = EDGE_CURVE ( 'NONE', #998, #189, #192, .T. ) ;
#329 = VECTOR ( 'NONE', #843, 1000.000000000000000 ) ;
#330 = CARTESIAN_POINT ( 'NONE',  ( -0.4750000000000002554, 0.3249999999999999001, -0.2500000000000000000 ) ) ;
#331 = MECHANICAL_DESIGN_GEOMETRIC_PRESENTATION_REPRESENTATION (  '', ( #290 ), #1075 ) ;
#332 = STYLED_ITEM ( 'NONE', ( #917 ), #1059 ) ;
#333 = DIRECTION ( 'NONE',  ( 0.0000000000000000000, 0.0000000000000000000, -1.000000000000000000 ) ) ;
#334 = LINE ( 'NONE', #1199, #1020 ) ;
#335 = DIRECTION ( 'NONE',  ( 4.274524912081044130E-31, -1.000000000000000000, -9.268898392043355874E-47 ) ) ;
#336 = ORIENTED_EDGE ( 'NONE', *, *, #1241, .F. ) ;
#337 = CARTESIAN_POINT ( 'NONE',  ( -0.3000000000000002109, 0.3499999999999999778, 0.2499999999999999445 ) ) ;
#338 = EDGE_CURVE ( 'NONE', #826, #115, #1065, .T. ) ;
#339 = CARTESIAN_POINT ( 'NONE',  ( 0.9881246098625198204, 0.3499999999999995337, 0.2499999999999999445 ) ) ;
#340 = FACE_OUTER_BOUND ( 'NONE', #794, .T. ) ;
#341 = CARTESIAN_POINT ( 'NONE',  ( -0.3000000000000001554, 0.3499999999999999778, 0.2499999999999999445 ) ) ;
#342 = PLANE ( 'NONE',  #423 ) ;
#343 = VERTEX_POINT ( 'NONE', #503 ) ;
#344 = FILL_AREA_STYLE_COLOUR ( '', #782 ) ;
#345 = UNCERTAINTY_MEASURE_WITH_UNIT (LENGTH_MEASURE( 1.000000000000000082E-05 ), #598, 'distance_accuracy_value', 'NONE');
#346 = FILL_AREA_STYLE ('',( #885 ) ) ;
#347 = EDGE_CURVE ( 'NONE', #40, #951, #1266, .T. ) ;
#348 = VERTEX_POINT ( 'NONE', #1058 ) ;
#349 = PLANE ( 'NONE',  #102 ) ;
#350 = CARTESIAN_POINT ( 'NONE',  ( -0.3000000000000001554, 0.3499999999999999778, 0.2499999999999999445 ) ) ;
#351 = DIRECTION ( 'NONE',  ( -5.421010862427521184E-16, 1.000000000000000000, 0.0000000000000000000 ) ) ;
#352 = VERTEX_POINT ( 'NONE', #300 ) ;
#353 = SURFACE_STYLE_FILL_AREA ( #377 ) ;
#354 = DIRECTION ( 'NONE',  ( 0.0000000000000000000, 0.0000000000000000000, -1.000000000000000000 ) ) ;
#355 = AXIS2_PLACEMENT_3D ( 'NONE', #21, #960, #1170 ) ;
#356 = ORIENTED_EDGE ( 'NONE', *, *, #680, .T. ) ;
#357 = SURFACE_STYLE_USAGE ( .BOTH. , #911 ) ;
#358 = MECHANICAL_DESIGN_GEOMETRIC_PRESENTATION_REPRESENTATION (  '', ( #600 ), #761 ) ;
#359 = CARTESIAN_POINT ( 'NONE',  ( -0.4200000000000002620, 0.3250000000000000666, -0.2499999999999997224 ) ) ;
#360 = CARTESIAN_POINT ( 'NONE',  ( 0.2999999999999998224, 0.3250000000000003997, 0.1849999999999999423 ) ) ;
#361 = ADVANCED_FACE ( 'NONE', ( #1353 ), #1151, .T. ) ;
#362 = ORIENTED_EDGE ( 'NONE', *, *, #1147, .T. ) ;
#363 = PLANE ( 'NONE',  #1132 ) ;
#364 = APPLICATION_PROTOCOL_DEFINITION ( 'draft international standard', 'automotive_design', 1998, #1159 ) ;
#365 = ORIENTED_EDGE ( 'NONE', *, *, #272, .T. ) ;
#366 = DIRECTION ( 'NONE',  ( -1.000000000000000000, 6.562276307149104695E-16, 0.0000000000000000000 ) ) ;
#367 = MECHANICAL_DESIGN_GEOMETRIC_PRESENTATION_REPRESENTATION (  '', ( #1118 ), #722 ) ;
#368 = CARTESIAN_POINT ( 'NONE',  ( -0.4749999999999998668, 0.3499999999999999778, -0.2500000000000000000 ) ) ;
#369 = EDGE_LOOP ( 'NONE', ( #666, #776, #63, #1024 ) ) ;
#370 = ADVANCED_FACE ( 'NONE', ( #1083 ), #856, .F. ) ;
#371 = LINE ( 'NONE', #1221, #876 ) ;
#372 = ORIENTED_EDGE ( 'NONE', *, *, #733, .T. ) ;
#373 =( NAMED_UNIT ( * ) PLANE_ANGLE_UNIT ( ) SI_UNIT ( $, .RADIAN. ) );
#374 = DIRECTION ( 'NONE',  ( 0.0000000000000000000, 0.0000000000000000000, 1.000000000000000000 ) ) ;
#375 = LINE ( 'NONE', #803, #329 ) ;
#376 = VERTEX_POINT ( 'NONE', #1165 ) ;
#377 = FILL_AREA_STYLE ('',( #344 ) ) ;
#378 = UNCERTAINTY_MEASURE_WITH_UNIT (LENGTH_MEASURE( 1.000000000000000082E-05 ), #522, 'distance_accuracy_value', 'NONE');
#379 = ADVANCED_FACE ( 'NONE', ( #518 ), #321, .F. ) ;
#380 = EDGE_LOOP ( 'NONE', ( #1225, #978, #66, #409 ) ) ;
#381 = DIRECTION ( 'NONE',  ( 0.0000000000000000000, 0.0000000000000000000, 1.000000000000000000 ) ) ;
#382 = ORIENTED_EDGE ( 'NONE', *, *, #1141, .F. ) ;
#383 =( GEOMETRIC_REPRESENTATION_CONTEXT ( 3 ) GLOBAL_UNCERTAINTY_ASSIGNED_CONTEXT ( ( #924 ) ) GLOBAL_UNIT_ASSIGNED_CONTEXT ( ( #683, #373, #59 ) ) REPRESENTATION_CONTEXT ( 'NONE', 'WORKASPACE' ) );
#384 = AXIS2_PLACEMENT_3D ( 'NONE', #1160, #22, #122 ) ;
#385 = DIRECTION ( 'NONE',  ( -0.0000000000000000000, 0.0000000000000000000, 1.000000000000000000 ) ) ;
#386 = CARTESIAN_POINT ( 'NONE',  ( 0.3000000000000002665, 0.3499999999999999223, 0.2499999999999999445 ) ) ;
#387 = ADVANCED_FACE ( 'NONE', ( #768 ), #846, .F. ) ;
#388 = ORIENTED_EDGE ( 'NONE', *, *, #642, .F. ) ;
#389 = COLOUR_RGB ( '',0.09803921568627450844, 0.09803921568627450844, 0.09803921568627450844 ) ;
#390 = DIRECTION ( 'NONE',  ( 1.000000000000000000, 0.0000000000000000000, -1.971276677246371519E-16 ) ) ;
#391 = ORIENTED_EDGE ( 'NONE', *, *, #859, .T. ) ;
#392 = CARTESIAN_POINT ( 'NONE',  ( -0.4200000000000002620, 0.3250000000000000666, 0.2499999999999999445 ) ) ;
#393 = FILL_AREA_STYLE_COLOUR ( '', #174 ) ;
#394 = ORIENTED_EDGE ( 'NONE', *, *, #770, .T. ) ;
#395 = SURFACE_STYLE_USAGE ( .BOTH. , #190 ) ;
#396 = EDGE_CURVE ( 'NONE', #493, #343, #759, .T. ) ;
#397 = DIRECTION ( 'NONE',  ( 1.000000000000000000, -1.141265444721583757E-16, 0.0000000000000000000 ) ) ;
#398 = VERTEX_POINT ( 'NONE', #1062 ) ;
#399 = LINE ( 'NONE', #507, #123 ) ;
#400 = EDGE_LOOP ( 'NONE', ( #1202, #75, #675, #599 ) ) ;
#401 = CARTESIAN_POINT ( 'NONE',  ( -0.9881246098625198204, 0.3499999999999996447, -0.2500000000000000000 ) ) ;
#402 = FILL_AREA_STYLE ('',( #419 ) ) ;
#403 = AXIS2_PLACEMENT_3D ( 'NONE', #1364, #397, #734 ) ;
#404 = STYLED_ITEM ( 'NONE', ( #37 ), #431 ) ;
#405 = CARTESIAN_POINT ( 'NONE',  ( -0.3000000000000003220, 0.3499999999999999778, -0.1849999999999997757 ) ) ;
#406 = VECTOR ( 'NONE', #333, 1000.000000000000000 ) ;
#407 = SURFACE_STYLE_FILL_AREA ( #94 ) ;
#408 =( GEOMETRIC_REPRESENTATION_CONTEXT ( 3 ) GLOBAL_UNCERTAINTY_ASSIGNED_CONTEXT ( ( #1012 ) ) GLOBAL_UNIT_ASSIGNED_CONTEXT ( ( #279, #1346, #414 ) ) REPRESENTATION_CONTEXT ( 'NONE', 'WORKASPACE' ) );
#409 = ORIENTED_EDGE ( 'NONE', *, *, #777, .F. ) ;
#410 = SURFACE_STYLE_USAGE ( .BOTH. , #1363 ) ;
#411 = CLOSED_SHELL ( 'NONE', ( #313, #1182, #387, #760, #1025, #808 ) ) ;
#412 = CARTESIAN_POINT ( 'NONE',  ( -0.4200000000000002620, 0.3250000000000000666, 0.2499999999999999445 ) ) ;
#413 = ORIENTED_EDGE ( 'NONE', *, *, #144, .T. ) ;
#414 =( NAMED_UNIT ( * ) SI_UNIT ( $, .STERADIAN. ) SOLID_ANGLE_UNIT ( ) );
#415 = PRESENTATION_STYLE_ASSIGNMENT (( #728 ) ) ;
#416 = VERTEX_POINT ( 'NONE', #110 ) ;
#417 = EDGE_CURVE ( 'NONE', #797, #774, #131, .T. ) ;
#418 = DIRECTION ( 'NONE',  ( -5.421010862427521184E-16, 1.000000000000000000, 1.068631228020261032E-31 ) ) ;
#419 = FILL_AREA_STYLE_COLOUR ( '', #124 ) ;
#420 = PRESENTATION_STYLE_ASSIGNMENT (( #1 ) ) ;
#421 = CARTESIAN_POINT ( 'NONE',  ( 0.4750000000000000333, 0.02500000000000014710, -0.2500000000000000000 ) ) ;
#422 = ORIENTED_EDGE ( 'NONE', *, *, #742, .F. ) ;
#423 = AXIS2_PLACEMENT_3D ( 'NONE', #660, #335, #1109 ) ;
#424 = AXIS2_PLACEMENT_3D ( 'NONE', #720, #1046, #502 ) ;
#425 = PLANE ( 'NONE',  #1260 ) ;
#426 = VECTOR ( 'NONE', #800, 1000.000000000000000 ) ;
#427 = ADVANCED_FACE ( 'NONE', ( #798 ), #363, .T. ) ;
#428 = ORIENTED_EDGE ( 'NONE', *, *, #635, .F. ) ;
#429 = VECTOR ( 'NONE', #17, 1000.000000000000000 ) ;
#430 = CARTESIAN_POINT ( 'NONE',  ( 0.2999999999815372576, 0.3250000000000000111, -0.2500000000000001110 ) ) ;
#431 = ADVANCED_FACE ( 'NONE', ( #1203 ), #46, .F. ) ;
#432 = PRESENTATION_STYLE_ASSIGNMENT (( #778 ) ) ;
#433 = EDGE_CURVE ( 'NONE', #286, #376, #827, .T. ) ;
#434 = EDGE_LOOP ( 'NONE', ( #391, #756, #1248, #13 ) ) ;
#435 = DIRECTION ( 'NONE',  ( 0.0000000000000000000, 0.0000000000000000000, 1.000000000000000000 ) ) ;
#436 = DIRECTION ( 'NONE',  ( -1.000000000000000000, -4.274524912081044130E-31, 1.971276677246371519E-16 ) ) ;
#437 = DIRECTION ( 'NONE',  ( 0.0000000000000000000, 0.0000000000000000000, -1.000000000000000000 ) ) ;
#438 = CARTESIAN_POINT ( 'NONE',  ( 0.5000000000000002220, 0.3499999999999999223, 0.2499999999999999445 ) ) ;
#439 = ORIENTED_EDGE ( 'NONE', *, *, #202, .T. ) ;
#440 = ADVANCED_FACE ( 'NONE', ( #930 ), #1138, .T. ) ;
#441 = FACE_OUTER_BOUND ( 'NONE', #1060, .T. ) ;
#442 = PRESENTATION_LAYER_ASSIGNMENT (  '', '', ( #290 ) ) ;
#443 = MECHANICAL_DESIGN_GEOMETRIC_PRESENTATION_REPRESENTATION (  '', ( #332 ), #408 ) ;
#444 =( NAMED_UNIT ( * ) PLANE_ANGLE_UNIT ( ) SI_UNIT ( $, .RADIAN. ) );
#445 = LINE ( 'NONE', #871, #741 ) ;
#446 = LINE ( 'NONE', #992, #264 ) ;
#447 = EDGE_LOOP ( 'NONE', ( #1112, #619, #576, #1069 ) ) ;
#448 = VECTOR ( 'NONE', #141, 1000.000000000000000 ) ;
#449 = EDGE_LOOP ( 'NONE', ( #1361, #173, #474, #1133 ) ) ;
#450 = CARTESIAN_POINT ( 'NONE',  ( 0.4750000000000000888, 0.3249999999999998446, 0.2500000000000000000 ) ) ;
#451 = SURFACE_STYLE_FILL_AREA ( #109 ) ;
#452 = DIRECTION ( 'NONE',  ( -1.000000000000000000, -4.517509052022935470E-16, -2.258754526011467735E-16 ) ) ;
#453 = ORIENTED_EDGE ( 'NONE', *, *, #1317, .F. ) ;
#454 = LINE ( 'NONE', #1314, #716 ) ;
#455 = EDGE_LOOP ( 'NONE', ( #894, #72, #479, #282, #138, #325, #594, #1286 ) ) ;
#456 = CARTESIAN_POINT ( 'NONE',  ( -0.4750000000000000333, 0.02500000000000020262, 0.2500000000000000000 ) ) ;
#457 = DIRECTION ( 'NONE',  ( -1.000000000000000000, 1.141265444721583757E-16, 0.0000000000000000000 ) ) ;
#458 = EDGE_LOOP ( 'NONE', ( #1107, #910, #1329, #1116 ) ) ;
#459 =( LENGTH_UNIT ( ) NAMED_UNIT ( * ) SI_UNIT ( .MILLI., .METRE. ) );
#460 = ORIENTED_EDGE ( 'NONE', *, *, #534, .T. ) ;
#461 = DIRECTION ( 'NONE',  ( -2.168404344971008868E-16, 0.0000000000000000000, -1.000000000000000000 ) ) ;
#462 = VECTOR ( 'NONE', #385, 1000.000000000000000 ) ;
#463 = EDGE_CURVE ( 'NONE', #1268, #516, #913, .T. ) ;
#464 = DIRECTION ( 'NONE',  ( -0.0000000000000000000, -1.000000000000000000, -0.0000000000000000000 ) ) ;
#465 = FACE_OUTER_BOUND ( 'NONE', #543, .T. ) ;
#466 = ORIENTED_EDGE ( 'NONE', *, *, #281, .T. ) ;
#467 = CARTESIAN_POINT ( 'NONE',  ( -0.4750000000000001443, 0.3250000000000000111, -0.2500000000000000555 ) ) ;
#468 = VERTEX_POINT ( 'NONE', #1349 ) ;
#469 = AXIS2_PLACEMENT_3D ( 'NONE', #1224, #812, #43 ) ;
#470 = LINE ( 'NONE', #677, #1263 ) ;
#471 = DIRECTION ( 'NONE',  ( -1.000000000000000000, -5.421010862427521184E-16, 0.0000000000000000000 ) ) ;
#472 = VERTEX_POINT ( 'NONE', #1130 ) ;
#473 = SURFACE_STYLE_FILL_AREA ( #781 ) ;
#474 = ORIENTED_EDGE ( 'NONE', *, *, #18, .T. ) ;
#475 =( NAMED_UNIT ( * ) SI_UNIT ( $, .STERADIAN. ) SOLID_ANGLE_UNIT ( ) );
#476 = CARTESIAN_POINT ( 'NONE',  ( 0.3000000000000002665, 0.3249999999999999556, -0.2500000000000000000 ) ) ;
#477 = EDGE_LOOP ( 'NONE', ( #570, #1355, #2, #902 ) ) ;
#478 = DIRECTION ( 'NONE',  ( -1.000000000000000000, 1.141265444721583757E-16, 0.0000000000000000000 ) ) ;
#479 = ORIENTED_EDGE ( 'NONE', *, *, #121, .F. ) ;
#480 = EDGE_CURVE ( 'NONE', #951, #563, #602, .T. ) ;
#481 = ORIENTED_EDGE ( 'NONE', *, *, #1042, .F. ) ;
#482 = CARTESIAN_POINT ( 'NONE',  ( 0.9881246098625198204, 0.3499999999999995337, 0.2499999999999999445 ) ) ;
#483 = COLOUR_RGB ( '',0.8980392156862745390, 0.9176470588235293713, 0.9294117647058823817 ) ;
#484 = ORIENTED_EDGE ( 'NONE', *, *, #974, .F. ) ;
#485 = STYLED_ITEM ( 'NONE', ( #676 ), #986 ) ;
#486 = PRESENTATION_LAYER_ASSIGNMENT (  '', '', ( #332 ) ) ;
#487 = DIRECTION ( 'NONE',  ( 1.000000000000000000, 5.421010862427521184E-16, 0.0000000000000000000 ) ) ;
#488 = FILL_AREA_STYLE_COLOUR ( '', #389 ) ;
#489 = PRODUCT_RELATED_PRODUCT_CATEGORY ( 'part', '', ( #211 ) ) ;
#490 = ORIENTED_EDGE ( 'NONE', *, *, #901, .F. ) ;
#491 = CARTESIAN_POINT ( 'NONE',  ( -0.3000000000000002665, 0.3250000000000000111, -0.2500000000000000000 ) ) ;
#492 = VECTOR ( 'NONE', #540, 1000.000000000000000 ) ;
#493 = VERTEX_POINT ( 'NONE', #1365 ) ;
#494 = LINE ( 'NONE', #405, #757 ) ;
#495 = VERTEX_POINT ( 'NONE', #392 ) ;
#496 = LINE ( 'NONE', #824, #528 ) ;
#497 =( LENGTH_UNIT ( ) NAMED_UNIT ( * ) SI_UNIT ( .MILLI., .METRE. ) );
#498 = EDGE_CURVE ( 'NONE', #182, #1281, #93, .T. ) ;
#499 =( NAMED_UNIT ( * ) PLANE_ANGLE_UNIT ( ) SI_UNIT ( $, .RADIAN. ) );
#500 =( NAMED_UNIT ( * ) PLANE_ANGLE_UNIT ( ) SI_UNIT ( $, .RADIAN. ) );
#501 = ORIENTED_EDGE ( 'NONE', *, *, #1042, .T. ) ;
#502 = DIRECTION ( 'NONE',  ( 0.0000000000000000000, -0.0000000000000000000, 1.000000000000000000 ) ) ;
#503 = CARTESIAN_POINT ( 'NONE',  ( 0.4749999999999998113, 0.3249999999999999556, 0.2499999999999999445 ) ) ;
#504 = PRESENTATION_LAYER_ASSIGNMENT (  '', '', ( #137 ) ) ;
#505 = EDGE_CURVE ( 'NONE', #40, #31, #193, .T. ) ;
#506 = VECTOR ( 'NONE', #214, 1000.000000000000000 ) ;
#507 = CARTESIAN_POINT ( 'NONE',  ( 0.4199999999999998734, 0.3250000000000004552, -0.1849999999999998035 ) ) ;
#508 = ORIENTED_EDGE ( 'NONE', *, *, #178, .T. ) ;
#509 = VECTOR ( 'NONE', #437, 1000.000000000000000 ) ;
#510 = VECTOR ( 'NONE', #4, 1000.000000000000000 ) ;
#511 = EDGE_LOOP ( 'NONE', ( #705, #889, #1148, #682, #1087, #867, #1126, #314 ) ) ;
#512 = CARTESIAN_POINT ( 'NONE',  ( 0.5000000000000002220, 0.3499999999999999223, 0.2499999999999999445 ) ) ;
#513 = CARTESIAN_POINT ( 'NONE',  ( -0.4200000000000002620, 0.3250000000000000666, -0.1849999999999998035 ) ) ;
#514 = CARTESIAN_POINT ( 'NONE',  ( -0.4200000000000002620, 0.3499999999999999223, -0.2499999999999997224 ) ) ;
#515 = VECTOR ( 'NONE', #991, 1000.000000000000000 ) ;
#516 = VERTEX_POINT ( 'NONE', #936 ) ;
#517 = FACE_OUTER_BOUND ( 'NONE', #1264, .T. ) ;
#518 = FACE_OUTER_BOUND ( 'NONE', #1021, .T. ) ;
#519 = CARTESIAN_POINT ( 'NONE',  ( 500000.0000000000582, 0.3499999999999999778, -0.2500000000985638793 ) ) ;
#520 = DIRECTION ( 'NONE',  ( -2.258754526011468228E-16, -2.293104510126810447E-31, 1.000000000000000000 ) ) ;
#521 = FILL_AREA_STYLE ('',( #113 ) ) ;
#522 =( LENGTH_UNIT ( ) NAMED_UNIT ( * ) SI_UNIT ( .MILLI., .METRE. ) );
#523 = VERTEX_POINT ( 'NONE', #821 ) ;
#524 = EDGE_CURVE ( 'NONE', #278, #1052, #613, .T. ) ;
#525 = DIRECTION ( 'NONE',  ( -1.000000000000000000, -4.274524912081044130E-31, 1.971276677246371519E-16 ) ) ;
#526 = CARTESIAN_POINT ( 'NONE',  ( 0.2999999999999998224, 0.3250000000000003997, 0.1849999999999999423 ) ) ;
#527 = VERTEX_POINT ( 'NONE', #1124 ) ;
#528 = VECTOR ( 'NONE', #1149, 1000.000000000000000 ) ;
#529 = PLANE ( 'NONE',  #1136 ) ;
#530 = LINE ( 'NONE', #976, #1227 ) ;
#531 = EDGE_LOOP ( 'NONE', ( #801, #82, #587, #1066, #362, #931, #1008, #130 ) ) ;
#532 = DIRECTION ( 'NONE',  ( -0.0000000000000000000, 0.0000000000000000000, -1.000000000000000000 ) ) ;
#533 = FILL_AREA_STYLE ('',( #1285 ) ) ;
#534 = EDGE_CURVE ( 'NONE', #189, #1052, #494, .T. ) ;
#535 = DIRECTION ( 'NONE',  ( 0.0000000000000000000, -1.000000000000000000, -2.168404344971008079E-15 ) ) ;
#536 = CARTESIAN_POINT ( 'NONE',  ( 0.4750000000000000333, 0.3249999999999996225, -0.2500000000000000000 ) ) ;
#537 = ORIENTED_EDGE ( 'NONE', *, *, #925, .F. ) ;
#538 = DIRECTION ( 'NONE',  ( -5.421010862427521184E-16, 1.000000000000000000, 0.0000000000000000000 ) ) ;
#539 = DIRECTION ( 'NONE',  ( -0.0000000000000000000, 0.0000000000000000000, -1.000000000000000000 ) ) ;
#540 = DIRECTION ( 'NONE',  ( -1.141265444721583757E-16, -1.000000000000000000, 0.0000000000000000000 ) ) ;
#541 = EDGE_CURVE ( 'NONE', #1123, #1097, #399, .T. ) ;
#542 = LINE ( 'NONE', #773, #597 ) ;
#543 = EDGE_LOOP ( 'NONE', ( #559, #686, #696, #1039 ) ) ;
#544 = SURFACE_STYLE_USAGE ( .BOTH. , #259 ) ;
#545 =( GEOMETRIC_REPRESENTATION_CONTEXT ( 3 ) GLOBAL_UNCERTAINTY_ASSIGNED_CONTEXT ( ( #1332 ) ) GLOBAL_UNIT_ASSIGNED_CONTEXT ( ( #198, #1146, #814 ) ) REPRESENTATION_CONTEXT ( 'NONE', 'WORKASPACE' ) );
#546 = DIRECTION ( 'NONE',  ( -0.0000000000000000000, -0.0000000000000000000, -1.000000000000000000 ) ) ;
#547 = PRESENTATION_LAYER_ASSIGNMENT (  '', '', ( #241 ) ) ;
#548 = VERTEX_POINT ( 'NONE', #948 ) ;
#549 = FACE_OUTER_BOUND ( 'NONE', #458, .T. ) ;
#550 = FACE_OUTER_BOUND ( 'NONE', #400, .T. ) ;
#551 = LINE ( 'NONE', #44, #222 ) ;
#552 = ORIENTED_EDGE ( 'NONE', *, *, #202, .F. ) ;
#553 = MECHANICAL_DESIGN_GEOMETRIC_PRESENTATION_REPRESENTATION (  '', ( #629 ), #1079 ) ;
#554 = PRESENTATION_STYLE_ASSIGNMENT (( #562 ) ) ;
#555 = ORIENTED_EDGE ( 'NONE', *, *, #107, .F. ) ;
#556 = CARTESIAN_POINT ( 'NONE',  ( -0.4750000000000000333, 0.02500000000000020262, -0.2500000000000000000 ) ) ;
#557 = FACE_OUTER_BOUND ( 'NONE', #320, .T. ) ;
#558 = CARTESIAN_POINT ( 'NONE',  ( -0.4200000000000002620, 0.3499999999999999223, 0.2499999999999999445 ) ) ;
#559 = ORIENTED_EDGE ( 'NONE', *, *, #1373, .F. ) ;
#560 = CARTESIAN_POINT ( 'NONE',  ( -0.3000000000000003220, 0.3250000000000000666, -0.1849999999999997757 ) ) ;
#561 = ADVANCED_FACE ( 'NONE', ( #269 ), #1031, .F. ) ;
#562 = SURFACE_STYLE_USAGE ( .BOTH. , #1096 ) ;
#563 = VERTEX_POINT ( 'NONE', #1157 ) ;
#564 = FILL_AREA_STYLE ('',( #161 ) ) ;
#565 = CARTESIAN_POINT ( 'NONE',  ( 0.4750000000000002554, 0.02499999999999990424, -0.2500000000000000000 ) ) ;
#566 = PLANE ( 'NONE',  #1255 ) ;
#567 = ORIENTED_EDGE ( 'NONE', *, *, #318, .T. ) ;
#568 = APPLICATION_CONTEXT ( 'automotive_design' ) ;
#569 = EDGE_CURVE ( 'NONE', #165, #495, #965, .T. ) ;
#570 = ORIENTED_EDGE ( 'NONE', *, *, #328, .T. ) ;
#571 = AXIS2_PLACEMENT_3D ( 'NONE', #678, #656, #351 ) ;
#572 = EDGE_CURVE ( 'NONE', #244, #376, #1280, .T. ) ;
#573 = VECTOR ( 'NONE', #1022, 1000.000000000000000 ) ;
#574 = CARTESIAN_POINT ( 'NONE',  ( 0.5000000000000002220, -2.853163611803991980E-18, 0.2499999999999999445 ) ) ;
#575 = LINE ( 'NONE', #1091, #204 ) ;
#576 = ORIENTED_EDGE ( 'NONE', *, *, #617, .T. ) ;
#577 = VECTOR ( 'NONE', #868, 1000.000000000000000 ) ;
#578 =( NAMED_UNIT ( * ) SI_UNIT ( $, .STERADIAN. ) SOLID_ANGLE_UNIT ( ) );
#579 =( NAMED_UNIT ( * ) SI_UNIT ( $, .STERADIAN. ) SOLID_ANGLE_UNIT ( ) );
#580 = VERTEX_POINT ( 'NONE', #319 ) ;
#581 = DIRECTION ( 'NONE',  ( -1.000000000000000000, 1.141265444721583757E-16, 0.0000000000000000000 ) ) ;
#582 = STYLED_ITEM ( 'NONE', ( #615 ), #15 ) ;
#583 = CARTESIAN_POINT ( 'NONE',  ( 0.4199999999999998179, 0.3500000000000003664, 0.2499999999999999445 ) ) ;
#584 = EDGE_CURVE ( 'NONE', #170, #36, #748, .T. ) ;
#585 = ORIENTED_EDGE ( 'NONE', *, *, #1301, .F. ) ;
#586 = LINE ( 'NONE', #199, #1044 ) ;
#587 = ORIENTED_EDGE ( 'NONE', *, *, #347, .F. ) ;
#588 = CARTESIAN_POINT ( 'NONE',  ( -0.3000000000000002109, 0.3499999999999999778, -0.1849999999999997202 ) ) ;
#589 = ORIENTED_EDGE ( 'NONE', *, *, #260, .T. ) ;
#590 = EDGE_CURVE ( 'NONE', #527, #495, #1267, .T. ) ;
#591 = DIRECTION ( 'NONE',  ( 5.421010862427521184E-16, -1.000000000000000000, 0.0000000000000000000 ) ) ;
#592 = LINE ( 'NONE', #704, #1211 ) ;
#593 = UNCERTAINTY_MEASURE_WITH_UNIT (LENGTH_MEASURE( 1.000000000000000082E-05 ), #877, 'distance_accuracy_value', 'NONE');
#594 = ORIENTED_EDGE ( 'NONE', *, *, #572, .F. ) ;
#595 = DIRECTION ( 'NONE',  ( -1.000000000000000000, -0.0000000000000000000, -0.0000000000000000000 ) ) ;
#596 = STYLED_ITEM ( 'NONE', ( #987 ), #427 ) ;
#597 = VECTOR ( 'NONE', #1209, 1000.000000000000000 ) ;
#598 =( LENGTH_UNIT ( ) NAMED_UNIT ( * ) SI_UNIT ( .MILLI., .METRE. ) );
#599 = ORIENTED_EDGE ( 'NONE', *, *, #740, .T. ) ;
#600 = STYLED_ITEM ( 'NONE', ( #654 ), #956 ) ;
#601 = COLOUR_RGB ( '',0.8980392156862745390, 0.9176470588235293713, 0.9294117647058823817 ) ;
#602 = LINE ( 'NONE', #1026, #1360 ) ;
#603 = PRESENTATION_STYLE_ASSIGNMENT (( #609 ) ) ;
#604 = EDGE_CURVE ( 'NONE', #1290, #780, #530, .T. ) ;
#605 = ORIENTED_EDGE ( 'NONE', *, *, #901, .T. ) ;
#606 = DIRECTION ( 'NONE',  ( -1.000000000000000000, 6.562276307149104695E-16, 0.0000000000000000000 ) ) ;
#607 = FACE_OUTER_BOUND ( 'NONE', #175, .T. ) ;
#608 = AXIS2_PLACEMENT_3D ( 'NONE', #574, #280, #374 ) ;
#609 = SURFACE_STYLE_USAGE ( .BOTH. , #284 ) ;
#610 = EDGE_CURVE ( 'NONE', #774, #1052, #324, .T. ) ;
#611 = LINE ( 'NONE', #940, #6 ) ;
#612 = CARTESIAN_POINT ( 'NONE',  ( -0.4750000000000001443, 0.3250000000000000111, -0.2500000000000000555 ) ) ;
#613 = LINE ( 'NONE', #1358, #1340 ) ;
#614 = EDGE_LOOP ( 'NONE', ( #108, #1239, #1004, #1048 ) ) ;
#615 = PRESENTATION_STYLE_ASSIGNMENT (( #1229 ) ) ;
#616 = ORIENTED_EDGE ( 'NONE', *, *, #347, .T. ) ;
#617 = EDGE_CURVE ( 'NONE', #548, #1028, #866, .T. ) ;
#618 = VECTOR ( 'NONE', #1235, 1000.000000000000000 ) ;
#619 = ORIENTED_EDGE ( 'NONE', *, *, #1252, .F. ) ;
#620 = MECHANICAL_DESIGN_GEOMETRIC_PRESENTATION_REPRESENTATION (  '', ( #241 ), #383 ) ;
#621 = AXIS2_PLACEMENT_3D ( 'NONE', #118, #1067, #132 ) ;
#622 = CARTESIAN_POINT ( 'NONE',  ( -0.4750000000000002554, 0.02499999999999995628, -0.2500000000000000000 ) ) ;
#623 = CARTESIAN_POINT ( 'NONE',  ( 0.4749999999999998113, 0.3249999999999999556, -0.2500000000000000555 ) ) ;
#624 = CARTESIAN_POINT ( 'NONE',  ( 500000.0000000000582, 0.3250000000000000111, -0.2500000000985638793 ) ) ;
#625 = DIRECTION ( 'NONE',  ( -5.421010862427521184E-16, 1.000000000000000000, 0.0000000000000000000 ) ) ;
#626 = CARTESIAN_POINT ( 'NONE',  ( 0.3000000000000002665, 0.3249999999999999556, -0.2500000000000000000 ) ) ;
#627 = VECTOR ( 'NONE', #381, 1000.000000000000000 ) ;
#628 = EDGE_CURVE ( 'NONE', #817, #352, #1081, .T. ) ;
#629 = STYLED_ITEM ( 'NONE', ( #603 ), #42 ) ;
#630 = EDGE_LOOP ( 'NONE', ( #616, #810, #605, #1345 ) ) ;
#631 = DIRECTION ( 'NONE',  ( 1.000000000000000000, 5.421010862427521184E-16, -0.0000000000000000000 ) ) ;
#632 = LINE ( 'NONE', #869, #406 ) ;
#633 = ORIENTED_EDGE ( 'NONE', *, *, #584, .T. ) ;
#634 = ADVANCED_FACE ( 'NONE', ( #257 ), #1298, .F. ) ;
#635 = EDGE_CURVE ( 'NONE', #774, #348, #446, .T. ) ;
#636 = CARTESIAN_POINT ( 'NONE',  ( -0.4750000000000002554, 0.3249999999999999001, -0.2500000000000000000 ) ) ;
#637 = SURFACE_STYLE_FILL_AREA ( #317 ) ;
#638 = DIRECTION ( 'NONE',  ( 0.0000000000000000000, -1.000000000000000000, 0.0000000000000000000 ) ) ;
#639 = ORIENTED_EDGE ( 'NONE', *, *, #288, .F. ) ;
#640 = VECTOR ( 'NONE', #452, 1000.000000000000000 ) ;
#641 = AXIS2_PLACEMENT_3D ( 'NONE', #962, #520, #1135 ) ;
#642 = EDGE_CURVE ( 'NONE', #729, #472, #880, .T. ) ;
#643 = CARTESIAN_POINT ( 'NONE',  ( 0.4199999999999998179, 0.3250000000000004552, 0.2499999999999999445 ) ) ;
#644 = VECTOR ( 'NONE', #436, 1000.000000000000000 ) ;
#645 = DIRECTION ( 'NONE',  ( 2.258754526011468228E-16, 2.293104510126810447E-31, -1.000000000000000000 ) ) ;
#646 = CARTESIAN_POINT ( 'NONE',  ( 0.4199999999999998179, 0.3250000000000004552, 0.1849999999999999700 ) ) ;
#647 = CARTESIAN_POINT ( 'NONE',  ( -0.3000000000000003220, 0.3250000000000000666, -0.1849999999999997757 ) ) ;
#648 = EDGE_LOOP ( 'NONE', ( #453, #52, #27, #160 ) ) ;
#649 = VECTOR ( 'NONE', #703, 1000.000000000000000 ) ;
#650 = DIRECTION ( 'NONE',  ( -0.0000000000000000000, -0.0000000000000000000, 1.000000000000000000 ) ) ;
#651 = UNCERTAINTY_MEASURE_WITH_UNIT (LENGTH_MEASURE( 1.000000000000000082E-05 ), #1000, 'distance_accuracy_value', 'NONE');
#652 = DIRECTION ( 'NONE',  ( -1.141265444721583757E-16, 0.0000000000000000000, -1.000000000000000000 ) ) ;
#653 = EDGE_CURVE ( 'NONE', #182, #1290, #900, .T. ) ;
#654 = PRESENTATION_STYLE_ASSIGNMENT (( #233 ) ) ;
#655 = DIRECTION ( 'NONE',  ( -1.000000000000000000, -4.274524912081044130E-31, 0.0000000000000000000 ) ) ;
#656 = DIRECTION ( 'NONE',  ( 1.000000000000000000, 5.421010862427521184E-16, -0.0000000000000000000 ) ) ;
#657 = ORIENTED_EDGE ( 'NONE', *, *, #107, .T. ) ;
#658 = SURFACE_STYLE_USAGE ( .BOTH. , #32 ) ;
#659 = DIRECTION ( 'NONE',  ( 0.0000000000000000000, 0.0000000000000000000, -1.000000000000000000 ) ) ;
#660 = CARTESIAN_POINT ( 'NONE',  ( 500000.0000000000582, 0.3499999999999999778, 0.2499999999014360652 ) ) ;
#661 = ORIENTED_EDGE ( 'NONE', *, *, #628, .F. ) ;
#662 = VECTOR ( 'NONE', #55, 1000.000000000000000 ) ;
#663 = MECHANICAL_DESIGN_GEOMETRIC_PRESENTATION_REPRESENTATION (  '', ( #970 ), #545 ) ;
#664 = SURFACE_STYLE_FILL_AREA ( #346 ) ;
#665 = MECHANICAL_DESIGN_GEOMETRIC_PRESENTATION_REPRESENTATION (  '', ( #485 ), #167 ) ;
#666 = ORIENTED_EDGE ( 'NONE', *, *, #1343, .T. ) ;
#667 = VECTOR ( 'NONE', #83, 1000.000000000000000 ) ;
#668 = FACE_OUTER_BOUND ( 'NONE', #854, .T. ) ;
#669 = CARTESIAN_POINT ( 'NONE',  ( 0.2500000000000001665, 0.02499999999999992853, -0.2500000000000000000 ) ) ;
#670 = CARTESIAN_POINT ( 'NONE',  ( -0.3000000000000002665, 0.3499999999999999778, 0.1849999999999999423 ) ) ;
#671 = ORIENTED_EDGE ( 'NONE', *, *, #1291, .F. ) ;
#672 = ADVANCED_FACE ( 'NONE', ( #1200 ), #566, .F. ) ;
#673 = AXIS2_PLACEMENT_3D ( 'NONE', #229, #1288, #655 ) ;
#674 = CARTESIAN_POINT ( 'NONE',  ( -0.4749999999999998668, 0.3499999999999999778, -0.2500000000000000000 ) ) ;
#675 = ORIENTED_EDGE ( 'NONE', *, *, #1032, .T. ) ;
#676 = PRESENTATION_STYLE_ASSIGNMENT (( #658 ) ) ;
#677 = CARTESIAN_POINT ( 'NONE',  ( 0.5000000000000002220, 0.3499999999999998113, 0.2499999999999999445 ) ) ;
#678 = CARTESIAN_POINT ( 'NONE',  ( 0.4199999999999998734, 0.3250000000000004552, -0.2499999999999997224 ) ) ;
#679 = VERTEX_POINT ( 'NONE', #1186 ) ;
#680 = EDGE_CURVE ( 'NONE', #278, #729, #26, .T. ) ;
#681 = DIRECTION ( 'NONE',  ( -0.0000000000000000000, -1.000000000000000000, -0.0000000000000000000 ) ) ;
#682 = ORIENTED_EDGE ( 'NONE', *, *, #1201, .F. ) ;
#683 =( LENGTH_UNIT ( ) NAMED_UNIT ( * ) SI_UNIT ( .MILLI., .METRE. ) );
#684 = DIRECTION ( 'NONE',  ( 1.000000000000000000, 0.0000000000000000000, -2.168404344971008868E-16 ) ) ;
#685 = CARTESIAN_POINT ( 'NONE',  ( 0.2999999999815372576, 0.3250000000000000111, 0.2499999999999998335 ) ) ;
#686 = ORIENTED_EDGE ( 'NONE', *, *, #1309, .T. ) ;
#687 = MECHANICAL_DESIGN_GEOMETRIC_PRESENTATION_REPRESENTATION (  '', ( #137 ), #969 ) ;
#688 = DIRECTION ( 'NONE',  ( 0.0000000000000000000, -1.000000000000000000, 0.0000000000000000000 ) ) ;
#689 = VECTOR ( 'NONE', #1261, 1000.000000000000000 ) ;
#690 = EDGE_CURVE ( 'NONE', #348, #527, #148, .T. ) ;
#691 = VERTEX_POINT ( 'NONE', #685 ) ;
#692 = DIRECTION ( 'NONE',  ( 1.141265444721583757E-16, 1.000000000000000000, -2.168404344971008079E-15 ) ) ;
#693 = PRESENTATION_LAYER_ASSIGNMENT (  '', '', ( #485 ) ) ;
#694 = AXIS2_PLACEMENT_3D ( 'NONE', #57, #775, #354 ) ;
#695 = LINE ( 'NONE', #1128, #296 ) ;
#696 = ORIENTED_EDGE ( 'NONE', *, *, #750, .T. ) ;
#697 = CARTESIAN_POINT ( 'NONE',  ( -0.5000000000000002220, 0.3499999999999998668, 0.2499999999999999445 ) ) ;
#698 = PRODUCT_DEFINITION_CONTEXT ( 'detailed design', #568, 'design' ) ;
#699 = ORIENTED_EDGE ( 'NONE', *, *, #1090, .T. ) ;
#700 = PLANE ( 'NONE',  #1344 ) ;
#701 = CLOSED_SHELL ( 'NONE', ( #865, #188, #440, #361, #997, #431, #1059, #986, #326, #427, #634, #1070, #946, #1105 ) ) ;
#702 = PRODUCT_DEFINITION ( 'UNKNOWN', '', #1204, #698 ) ;
#703 = DIRECTION ( 'NONE',  ( 0.0000000000000000000, 0.0000000000000000000, 1.000000000000000000 ) ) ;
#704 = CARTESIAN_POINT ( 'NONE',  ( -0.2500000000000001665, 0.1749999999999998501, -0.2500000000000000000 ) ) ;
#705 = ORIENTED_EDGE ( 'NONE', *, *, #690, .T. ) ;
#706 = DIRECTION ( 'NONE',  ( 1.000000000000000000, 0.0000000000000000000, -2.258754526011468228E-16 ) ) ;
#707 = CARTESIAN_POINT ( 'NONE',  ( 500000.0000000000582, 0.3499999999999999778, 0.2499999999014360652 ) ) ;
#708 = ORIENTED_EDGE ( 'NONE', *, *, #604, .F. ) ;
#709 = EDGE_CURVE ( 'NONE', #58, #951, #230, .T. ) ;
#710 = SURFACE_STYLE_USAGE ( .BOTH. , #717 ) ;
#711 = ORIENTED_EDGE ( 'NONE', *, *, #3, .F. ) ;
#712 = DIRECTION ( 'NONE',  ( 2.258754526011468228E-16, 1.558420540862883820E-32, 1.000000000000000000 ) ) ;
#713 = DIRECTION ( 'NONE',  ( 1.000000000000000000, -5.706327223607918787E-17, 0.0000000000000000000 ) ) ;
#714 = PRESENTATION_LAYER_ASSIGNMENT (  '', '', ( #970 ) ) ;
#715 = LINE ( 'NONE', #955, #64 ) ;
#716 = VECTOR ( 'NONE', #546, 1000.000000000000000 ) ;
#717 = SURFACE_SIDE_STYLE ('',( #77 ) ) ;
#718 = ADVANCED_FACE ( 'NONE', ( #1007 ), #342, .F. ) ;
#719 =( NAMED_UNIT ( * ) SI_UNIT ( $, .STERADIAN. ) SOLID_ANGLE_UNIT ( ) );
#720 = CARTESIAN_POINT ( 'NONE',  ( -0.4750000000000001443, 0.02500000000000000139, -0.2500000000000000555 ) ) ;
#721 =( NAMED_UNIT ( * ) SI_UNIT ( $, .STERADIAN. ) SOLID_ANGLE_UNIT ( ) );
#722 =( GEOMETRIC_REPRESENTATION_CONTEXT ( 3 ) GLOBAL_UNCERTAINTY_ASSIGNED_CONTEXT ( ( #651 ) ) GLOBAL_UNIT_ASSIGNED_CONTEXT ( ( #1000, #1347, #1318 ) ) REPRESENTATION_CONTEXT ( 'NONE', 'WORKASPACE' ) );
#723 =( LENGTH_UNIT ( ) NAMED_UNIT ( * ) SI_UNIT ( .MILLI., .METRE. ) );
#724 = UNCERTAINTY_MEASURE_WITH_UNIT (LENGTH_MEASURE( 1.000000000000000082E-05 ), #771, 'distance_accuracy_value', 'NONE');
#725 = ORIENTED_EDGE ( 'NONE', *, *, #974, .T. ) ;
#726 = EDGE_CURVE ( 'NONE', #1101, #149, #542, .T. ) ;
#727 = CARTESIAN_POINT ( 'NONE',  ( 0.4750000000000000333, 0.02500000000000014710, -0.2500000000000000000 ) ) ;
#728 = SURFACE_STYLE_USAGE ( .BOTH. , #1137 ) ;
#729 = VERTEX_POINT ( 'NONE', #1191 ) ;
#730 = DIRECTION ( 'NONE',  ( -5.421010862427521184E-16, 1.000000000000000000, 1.068631228020261032E-31 ) ) ;
#731 = FACE_OUTER_BOUND ( 'NONE', #449, .T. ) ;
#732 = LINE ( 'NONE', #1150, #874 ) ;
#733 = EDGE_CURVE ( 'NONE', #247, #842, #575, .T. ) ;
#734 = DIRECTION ( 'NONE',  ( 0.0000000000000000000, 0.0000000000000000000, 1.000000000000000000 ) ) ;
#735 = VECTOR ( 'NONE', #1099, 1000.000000000000000 ) ;
#736 = ORIENTED_EDGE ( 'NONE', *, *, #742, .T. ) ;
#737 = PRESENTATION_LAYER_ASSIGNMENT (  '', '', ( #600 ) ) ;
#738 = DIRECTION ( 'NONE',  ( 0.0000000000000000000, 0.0000000000000000000, 1.000000000000000000 ) ) ;
#739 = CARTESIAN_POINT ( 'NONE',  ( 0.2500000000000001665, 2.567847250623560927E-17, -0.2499999999999999445 ) ) ;
#740 = EDGE_CURVE ( 'NONE', #985, #145, #551, .T. ) ;
#741 = VECTOR ( 'NONE', #950, 1000.000000000000000 ) ;
#742 = EDGE_CURVE ( 'NONE', #398, #916, #893, .T. ) ;
#743 = EDGE_LOOP ( 'NONE', ( #1206, #708, #639, #298 ) ) ;
#744 = DIRECTION ( 'NONE',  ( 0.0000000000000000000, -0.0000000000000000000, -1.000000000000000000 ) ) ;
#745 = DIRECTION ( 'NONE',  ( -1.000000000000000000, 0.0000000000000000000, -0.0000000000000000000 ) ) ;
#746 =( NAMED_UNIT ( * ) SI_UNIT ( $, .STERADIAN. ) SOLID_ANGLE_UNIT ( ) );
#747 = FILL_AREA_STYLE_COLOUR ( '', #945 ) ;
#748 = LINE ( 'NONE', #219, #1176 ) ;
#749 = ORIENTED_EDGE ( 'NONE', *, *, #934, .F. ) ;
#750 = EDGE_CURVE ( 'NONE', #493, #1168, #250, .T. ) ;
#751 = DIRECTION ( 'NONE',  ( -1.000000000000000000, 0.0000000000000000000, 0.0000000000000000000 ) ) ;
#752 = CARTESIAN_POINT ( 'NONE',  ( 0.4750000000000003109, 0.3249999999999998446, -0.2500000000000000000 ) ) ;
#753 = DIRECTION ( 'NONE',  ( -1.000000000000000000, 0.0000000000000000000, -2.258754526011468228E-16 ) ) ;
#754 = DIRECTION ( 'NONE',  ( 1.000000000000000000, 5.421010862427521184E-16, -0.0000000000000000000 ) ) ;
#755 = DIRECTION ( 'NONE',  ( -1.141265444721583757E-16, -1.000000000000000000, 0.0000000000000000000 ) ) ;
#756 = ORIENTED_EDGE ( 'NONE', *, *, #396, .F. ) ;
#757 = VECTOR ( 'NONE', #1051, 1000.000000000000000 ) ;
#758 = VECTOR ( 'NONE', #1370, 1000.000000000000000 ) ;
#759 = LINE ( 'NONE', #623, #23 ) ;
#760 = ADVANCED_FACE ( 'NONE', ( #465 ), #1328, .F. ) ;
#761 =( GEOMETRIC_REPRESENTATION_CONTEXT ( 3 ) GLOBAL_UNCERTAINTY_ASSIGNED_CONTEXT ( ( #378 ) ) GLOBAL_UNIT_ASSIGNED_CONTEXT ( ( #522, #964, #119 ) ) REPRESENTATION_CONTEXT ( 'NONE', 'WORKASPACE' ) );
#762 = DIRECTION ( 'NONE',  ( -1.000000000000000000, -4.274524912081044130E-31, 1.971276677246371519E-16 ) ) ;
#763 = VECTOR ( 'NONE', #418, 1000.000000000000000 ) ;
#764 = CARTESIAN_POINT ( 'NONE',  ( 0.2999999999999998779, 0.3250000000000003997, -0.1849999999999997757 ) ) ;
#765 = LINE ( 'NONE', #622, #1283 ) ;
#766 = ORIENTED_EDGE ( 'NONE', *, *, #680, .F. ) ;
#767 = VECTOR ( 'NONE', #822, 1000.000000000000000 ) ;
#768 = FACE_OUTER_BOUND ( 'NONE', #380, .T. ) ;
#769 = DIRECTION ( 'NONE',  ( 1.000000000000000000, -5.706327223607918787E-17, 0.0000000000000000000 ) ) ;
#770 = EDGE_CURVE ( 'NONE', #1338, #679, #375, .T. ) ;
#771 =( LENGTH_UNIT ( ) NAMED_UNIT ( * ) SI_UNIT ( .MILLI., .METRE. ) );
#772 = LINE ( 'NONE', #1086, #1330 ) ;
#773 = CARTESIAN_POINT ( 'NONE',  ( -0.3000000000000002665, 0.3499999999999999778, -0.2500000000000000000 ) ) ;
#774 = VERTEX_POINT ( 'NONE', #1144 ) ;
#775 = DIRECTION ( 'NONE',  ( 1.000000000000000000, 0.0000000000000000000, 0.0000000000000000000 ) ) ;
#776 = ORIENTED_EDGE ( 'NONE', *, *, #288, .T. ) ;
#777 = EDGE_CURVE ( 'NONE', #1168, #908, #1055, .T. ) ;
#778 = SURFACE_STYLE_USAGE ( .BOTH. , #888 ) ;
#779 = CARTESIAN_POINT ( 'NONE',  ( 0.4199999999999998734, 0.3250000000000004552, -0.2499999999999997224 ) ) ;
#780 = VERTEX_POINT ( 'NONE', #201 ) ;
#781 = FILL_AREA_STYLE ('',( #995 ) ) ;
#782 = COLOUR_RGB ( '',0.8980392156862745390, 0.9176470588235293713, 0.9294117647058823817 ) ;
#783 = VECTOR ( 'NONE', #789, 1000.000000000000000 ) ;
#784 = CARTESIAN_POINT ( 'NONE',  ( -0.4750000000000001443, 0.3250000000000000111, -0.2500000000000000555 ) ) ;
#785 = ORIENTED_EDGE ( 'NONE', *, *, #260, .F. ) ;
#786 =( GEOMETRIC_REPRESENTATION_CONTEXT ( 3 ) GLOBAL_UNCERTAINTY_ASSIGNED_CONTEXT ( ( #277 ) ) GLOBAL_UNIT_ASSIGNED_CONTEXT ( ( #459, #1247, #719 ) ) REPRESENTATION_CONTEXT ( 'NONE', 'WORKASPACE' ) );
#787 = SURFACE_STYLE_FILL_AREA ( #564 ) ;
#788 = CARTESIAN_POINT ( 'NONE',  ( 0.3000000000000002665, 0.3499999999999999223, 0.2499999999999999445 ) ) ;
#789 = DIRECTION ( 'NONE',  ( -1.000000000000000000, 1.141265444721583757E-16, 0.0000000000000000000 ) ) ;
#790 = ORIENTED_EDGE ( 'NONE', *, *, #541, .T. ) ;
#791 = SURFACE_STYLE_USAGE ( .BOTH. , #1323 ) ;
#792 = VECTOR ( 'NONE', #730, 1000.000000000000000 ) ;
#793 = LINE ( 'NONE', #261, #426 ) ;
#794 = EDGE_LOOP ( 'NONE', ( #567, #938, #262, #990 ) ) ;
#795 = FACE_OUTER_BOUND ( 'NONE', #531, .T. ) ;
#796 = CARTESIAN_POINT ( 'NONE',  ( -0.5000000000000002220, 0.3499999999999999778, 0.2499999999999999445 ) ) ;
#797 = VERTEX_POINT ( 'NONE', #513 ) ;
#798 = FACE_OUTER_BOUND ( 'NONE', #1178, .T. ) ;
#799 = EDGE_CURVE ( 'NONE', #31, #1097, #191, .T. ) ;
#800 = DIRECTION ( 'NONE',  ( -1.141265444721583757E-16, -1.000000000000000000, 0.0000000000000000000 ) ) ;
#801 = ORIENTED_EDGE ( 'NONE', *, *, #11, .T. ) ;
#802 = FACE_OUTER_BOUND ( 'NONE', #1270, .T. ) ;
#803 = CARTESIAN_POINT ( 'NONE',  ( -0.4749999999999999778, 0.3249999999999996780, -0.2500000000000000000 ) ) ;
#804 = EDGE_LOOP ( 'NONE', ( #1354, #881, #84, #501 ) ) ;
#805 = DIRECTION ( 'NONE',  ( 0.0000000000000000000, 0.0000000000000000000, 1.000000000000000000 ) ) ;
#806 = DIRECTION ( 'NONE',  ( 0.0000000000000000000, 1.000000000000000000, -0.0000000000000000000 ) ) ;
#807 = PRESENTATION_LAYER_ASSIGNMENT (  '', '', ( #596 ) ) ;
#808 = ADVANCED_FACE ( 'NONE', ( #1273 ), #306, .F. ) ;
#809 = VECTOR ( 'NONE', #872, 1000.000000000000000 ) ;
#810 = ORIENTED_EDGE ( 'NONE', *, *, #480, .T. ) ;
#811 = AXIS2_PLACEMENT_3D ( 'NONE', #1049, #625, #471 ) ;
#812 = DIRECTION ( 'NONE',  ( -1.971276677246371519E-16, 0.0000000000000000000, -1.000000000000000000 ) ) ;
#813 = EDGE_LOOP ( 'NONE', ( #68, #661, #231, #790 ) ) ;
#814 =( NAMED_UNIT ( * ) SI_UNIT ( $, .STERADIAN. ) SOLID_ANGLE_UNIT ( ) );
#815 = LINE ( 'NONE', #1238, #767 ) ;
#816 = CLOSED_SHELL ( 'NONE', ( #29, #718, #243, #195, #967, #159 ) ) ;
#817 = VERTEX_POINT ( 'NONE', #1064 ) ;
#818 = DIRECTION ( 'NONE',  ( -5.421010862427521184E-16, 1.000000000000000000, 1.068631228020261032E-31 ) ) ;
#819 = DIRECTION ( 'NONE',  ( 0.0000000000000000000, 0.0000000000000000000, -1.000000000000000000 ) ) ;
#820 = ORIENTED_EDGE ( 'NONE', *, *, #859, .F. ) ;
#821 = CARTESIAN_POINT ( 'NONE',  ( 0.4199999999999998179, 0.3250000000000004552, 0.2499999999999999445 ) ) ;
#822 = DIRECTION ( 'NONE',  ( -1.141265444721583757E-16, -1.000000000000000000, -2.168404344971008079E-15 ) ) ;
#823 = ORIENTED_EDGE ( 'NONE', *, *, #617, .F. ) ;
#824 = CARTESIAN_POINT ( 'NONE',  ( -0.4200000000000002620, 0.3250000000000000666, 0.2499999999999999445 ) ) ;
#825 = EDGE_CURVE ( 'NONE', #468, #416, #732, .T. ) ;
#826 = VERTEX_POINT ( 'NONE', #739 ) ;
#827 = LINE ( 'NONE', #283, #462 ) ;
#828 = SURFACE_STYLE_FILL_AREA ( #1246 ) ;
#829 = DIRECTION ( 'NONE',  ( 0.0000000000000000000, 0.0000000000000000000, 1.000000000000000000 ) ) ;
#830 = LINE ( 'NONE', #1256, #1184 ) ;
#831 = FACE_OUTER_BOUND ( 'NONE', #258, .T. ) ;
#832 = VECTOR ( 'NONE', #853, 1000.000000000000000 ) ;
#833 = VECTOR ( 'NONE', #1375, 1000.000000000000000 ) ;
#834 = CARTESIAN_POINT ( 'NONE',  ( 0.2999999999999998779, 0.3250000000000003997, -0.1849999999999997757 ) ) ;
#835 = EDGE_CURVE ( 'NONE', #926, #797, #907, .T. ) ;
#836 = ORIENTED_EDGE ( 'NONE', *, *, #770, .F. ) ;
#837 = DIRECTION ( 'NONE',  ( 0.0000000000000000000, 0.0000000000000000000, 1.000000000000000000 ) ) ;
#838 = FACE_OUTER_BOUND ( 'NONE', #20, .T. ) ;
#839 = VECTOR ( 'NONE', #464, 1000.000000000000000 ) ;
#840 = DIRECTION ( 'NONE',  ( -1.000000000000000000, -0.0000000000000000000, -0.0000000000000000000 ) ) ;
#841 = ADVANCED_FACE ( 'NONE', ( #838 ), #208, .F. ) ;
#842 = VERTEX_POINT ( 'NONE', #61 ) ;
#843 = DIRECTION ( 'NONE',  ( 0.0000000000000000000, -1.000000000000000000, 0.0000000000000000000 ) ) ;
#844 =( LENGTH_UNIT ( ) NAMED_UNIT ( * ) SI_UNIT ( .MILLI., .METRE. ) );
#845 = ORIENTED_EDGE ( 'NONE', *, *, #1327, .T. ) ;
#846 = PLANE ( 'NONE',  #870 ) ;
#847 = ADVANCED_FACE ( 'NONE', ( #1276 ), #953, .F. ) ;
#848 = PLANE ( 'NONE',  #384 ) ;
#849 = SURFACE_STYLE_FILL_AREA ( #402 ) ;
#850 = CARTESIAN_POINT ( 'NONE',  ( 0.2999999999999998224, 0.3250000000000003997, 0.1849999999999999423 ) ) ;
#851 = MECHANICAL_DESIGN_GEOMETRIC_PRESENTATION_REPRESENTATION (  '', ( #404 ), #1093 ) ;
#852 = VECTOR ( 'NONE', #755, 1000.000000000000000 ) ;
#853 = DIRECTION ( 'NONE',  ( 1.000000000000000000, 5.421010862427521184E-16, -0.0000000000000000000 ) ) ;
#854 = EDGE_LOOP ( 'NONE', ( #237, #382, #861, #972, #736, #1218, #1310, #1223 ) ) ;
#855 = VECTOR ( 'NONE', #898, 1000.000000000000000 ) ;
#856 = PLANE ( 'NONE',  #1198 ) ;
#857 = FACE_OUTER_BOUND ( 'NONE', #455, .T. ) ;
#858 = SURFACE_SIDE_STYLE ('',( #637 ) ) ;
#859 = EDGE_CURVE ( 'NONE', #516, #343, #197, .T. ) ;
#860 = PRESENTATION_LAYER_ASSIGNMENT (  '', '', ( #1118 ) ) ;
#861 = ORIENTED_EDGE ( 'NONE', *, *, #1271, .F. ) ;
#862 = LINE ( 'NONE', #322, #268 ) ;
#863 = LINE ( 'NONE', #421, #942 ) ;
#864 = CARTESIAN_POINT ( 'NONE',  ( -0.9881246098625198204, 0.3499999999999996447, -0.2500000000000000000 ) ) ;
#865 = ADVANCED_FACE ( 'NONE', ( #607 ), #1167, .F. ) ;
#866 = LINE ( 'NONE', #536, #852 ) ;
#867 = ORIENTED_EDGE ( 'NONE', *, *, #835, .T. ) ;
#868 = DIRECTION ( 'NONE',  ( 0.0000000000000000000, 0.0000000000000000000, -1.000000000000000000 ) ) ;
#869 = CARTESIAN_POINT ( 'NONE',  ( 0.4199999999999998179, 0.3500000000000003664, 0.2499999999999999445 ) ) ;
#870 = AXIS2_PLACEMENT_3D ( 'NONE', #1292, #205, #327 ) ;
#871 = CARTESIAN_POINT ( 'NONE',  ( -0.4750000000000000333, 0.3249999999999999001, 0.2500000000000000000 ) ) ;
#872 = DIRECTION ( 'NONE',  ( -1.000000000000000000, -4.517509052022935470E-16, 2.258754526011467735E-16 ) ) ;
#873 = ORIENTED_EDGE ( 'NONE', *, *, #417, .F. ) ;
#874 = VECTOR ( 'NONE', #294, 1000.000000000000000 ) ;
#875 = CARTESIAN_POINT ( 'NONE',  ( -0.4750000000000002554, 0.02499999999999995628, -0.2500000000000000000 ) ) ;
#876 = VECTOR ( 'NONE', #30, 1000.000000000000000 ) ;
#877 =( LENGTH_UNIT ( ) NAMED_UNIT ( * ) SI_UNIT ( .MILLI., .METRE. ) );
#878 = PRESENTATION_STYLE_ASSIGNMENT (( #223 ) ) ;
#879 = CARTESIAN_POINT ( 'NONE',  ( -0.3000000000000002665, 0.3499999999999999778, -0.2500000000000000000 ) ) ;
#880 = LINE ( 'NONE', #558, #735 ) ;
#881 = ORIENTED_EDGE ( 'NONE', *, *, #1050, .F. ) ;
#882 = VECTOR ( 'NONE', #754, 1000.000000000000000 ) ;
#883 = UNCERTAINTY_MEASURE_WITH_UNIT (LENGTH_MEASURE( 1.000000000000000082E-05 ), #844, 'distance_accuracy_value', 'NONE');
#884 = EDGE_CURVE ( 'NONE', #1028, #115, #863, .T. ) ;
#885 = FILL_AREA_STYLE_COLOUR ( '', #601 ) ;
#886 = ORIENTED_EDGE ( 'NONE', *, *, #196, .F. ) ;
#887 = CARTESIAN_POINT ( 'NONE',  ( 0.5000000000000002220, -8.416832654821682338E-17, 0.2499999999999999445 ) ) ;
#888 = SURFACE_SIDE_STYLE ('',( #451 ) ) ;
#889 = ORIENTED_EDGE ( 'NONE', *, *, #590, .T. ) ;
#890 = LINE ( 'NONE', #1205, #1015 ) ;
#891 = ORIENTED_EDGE ( 'NONE', *, *, #572, .T. ) ;
#892 = PLANE ( 'NONE',  #954 ) ;
#893 = LINE ( 'NONE', #1319, #783 ) ;
#894 = ORIENTED_EDGE ( 'NONE', *, *, #569, .T. ) ;
#895 = LINE ( 'NONE', #784, #1095 ) ;
#896 = ORIENTED_EDGE ( 'NONE', *, *, #1141, .T. ) ;
#897 = AXIS2_PLACEMENT_3D ( 'NONE', #932, #1356, #538 ) ;
#898 = DIRECTION ( 'NONE',  ( 1.000000000000000000, 0.0000000000000000000, 0.0000000000000000000 ) ) ;
#899 = FACE_OUTER_BOUND ( 'NONE', #1001, .T. ) ;
#900 = LINE ( 'NONE', #796, #101 ) ;
#901 = EDGE_CURVE ( 'NONE', #563, #31, #1294, .T. ) ;
#902 = ORIENTED_EDGE ( 'NONE', *, *, #98, .T. ) ;
#903 = VECTOR ( 'NONE', #1017, 1000.000000000000000 ) ;
#904 = LINE ( 'NONE', #339, #105 ) ;
#905 = ORIENTED_EDGE ( 'NONE', *, *, #18, .F. ) ;
#906 = CARTESIAN_POINT ( 'NONE',  ( 0.4750000000000001998, 0.3499999999999999778, 0.2499999999999998890 ) ) ;
#907 = LINE ( 'NONE', #1154, #1056 ) ;
#908 = VERTEX_POINT ( 'NONE', #114 ) ;
#909 = DIRECTION ( 'NONE',  ( 0.0000000000000000000, 0.0000000000000000000, -1.000000000000000000 ) ) ;
#910 = ORIENTED_EDGE ( 'NONE', *, *, #1327, .F. ) ;
#911 = SURFACE_SIDE_STYLE ('',( #41 ) ) ;
#912 = ORIENTED_EDGE ( 'NONE', *, *, #433, .F. ) ;
#913 = LINE ( 'NONE', #186, #618 ) ;
#914 = SURFACE_SIDE_STYLE ('',( #407 ) ) ;
#915 = VECTOR ( 'NONE', #7, 1000.000000000000000 ) ;
#916 = VERTEX_POINT ( 'NONE', #1162 ) ;
#917 = PRESENTATION_STYLE_ASSIGNMENT (( #395 ) ) ;
#918 = COLOUR_RGB ( '',0.8431372549019607865, 0.8156862745098039102, 0.7529411764705882248 ) ;
#919 = VECTOR ( 'NONE', #525, 1000.000000000000000 ) ;
#920 = DIRECTION ( 'NONE',  ( 1.971276677246371519E-16, 0.0000000000000000000, 1.000000000000000000 ) ) ;
#921 = ORIENTED_EDGE ( 'NONE', *, *, #69, .F. ) ;
#922 = CARTESIAN_POINT ( 'NONE',  ( 0.4750000000000003109, 0.3249999999999998446, -0.2500000000000000000 ) ) ;
#923 = DIRECTION ( 'NONE',  ( 0.0000000000000000000, 0.0000000000000000000, -1.000000000000000000 ) ) ;
#924 = UNCERTAINTY_MEASURE_WITH_UNIT (LENGTH_MEASURE( 1.000000000000000082E-05 ), #683, 'distance_accuracy_value', 'NONE');
#925 = EDGE_CURVE ( 'NONE', #224, #580, #632, .T. ) ;
#926 = VERTEX_POINT ( 'NONE', #1174 ) ;
#927 = CARTESIAN_POINT ( 'NONE',  ( -0.4750000000000001443, 0.02500000000000000139, -0.2500000000000000555 ) ) ;
#928 = FILL_AREA_STYLE_COLOUR ( '', #1284 ) ;
#929 = VERTEX_POINT ( 'NONE', #129 ) ;
#930 = FACE_OUTER_BOUND ( 'NONE', #447, .T. ) ;
#931 = ORIENTED_EDGE ( 'NONE', *, *, #234, .F. ) ;
#932 = CARTESIAN_POINT ( 'NONE',  ( 0.4199999999999998179, 0.3250000000000004552, 0.2499999999999999445 ) ) ;
#933 =( NAMED_UNIT ( * ) PLANE_ANGLE_UNIT ( ) SI_UNIT ( $, .RADIAN. ) );
#934 = EDGE_CURVE ( 'NONE', #40, #1123, #980, .T. ) ;
#935 =( NAMED_UNIT ( * ) PLANE_ANGLE_UNIT ( ) SI_UNIT ( $, .RADIAN. ) );
#936 = CARTESIAN_POINT ( 'NONE',  ( -0.4750000000000001443, 0.3250000000000000111, 0.2499999999999999445 ) ) ;
#937 =( NAMED_UNIT ( * ) SI_UNIT ( $, .STERADIAN. ) SOLID_ANGLE_UNIT ( ) );
#938 = ORIENTED_EDGE ( 'NONE', *, *, #480, .F. ) ;
#939 = UNCERTAINTY_MEASURE_WITH_UNIT (LENGTH_MEASURE( 1.000000000000000082E-05 ), #1193, 'distance_accuracy_value', 'NONE');
#940 = CARTESIAN_POINT ( 'NONE',  ( 0.5000000000000002220, -2.853163611803991980E-18, 0.2499999999999999445 ) ) ;
#941 = CARTESIAN_POINT ( 'NONE',  ( 0.4750000000000000888, 0.3499999999999999778, -0.2500000000000001110 ) ) ;
#942 = VECTOR ( 'NONE', #215, 1000.000000000000000 ) ;
#943 = PLANE ( 'NONE',  #403 ) ;
#944 = MANIFOLD_SOLID_BREP ( 'Extruir10[1]', #212 ) ;
#945 = COLOUR_RGB ( '',0.8980392156862745390, 0.9176470588235293713, 0.9294117647058823817 ) ;
#946 = ADVANCED_FACE ( 'NONE', ( #340 ), #1189, .F. ) ;
#947 =( GEOMETRIC_REPRESENTATION_CONTEXT ( 3 ) GLOBAL_UNCERTAINTY_ASSIGNED_CONTEXT ( ( #593 ) ) GLOBAL_UNIT_ASSIGNED_CONTEXT ( ( #877, #169, #579 ) ) REPRESENTATION_CONTEXT ( 'NONE', 'WORKASPACE' ) );
#948 = CARTESIAN_POINT ( 'NONE',  ( 0.4750000000000000333, 0.3249999999999996225, -0.2500000000000000000 ) ) ;
#949 = ORIENTED_EDGE ( 'NONE', *, *, #825, .F. ) ;
#950 = DIRECTION ( 'NONE',  ( 0.0000000000000000000, -1.000000000000000000, 0.0000000000000000000 ) ) ;
#951 = VERTEX_POINT ( 'NONE', #526 ) ;
#952 = FILL_AREA_STYLE_COLOUR ( '', #291 ) ;
#953 = PLANE ( 'NONE',  #811 ) ;
#954 = AXIS2_PLACEMENT_3D ( 'NONE', #359, #249, #172 ) ;
#955 = CARTESIAN_POINT ( 'NONE',  ( 0.2999999999999998224, 0.3500000000000003109, 0.1849999999999999423 ) ) ;
#956 = MANIFOLD_SOLID_BREP ( 'Extruir6', #411 ) ;
#957 = ORIENTED_EDGE ( 'NONE', *, *, #1163, .F. ) ;
#958 = EDGE_CURVE ( 'NONE', #929, #826, #218, .T. ) ;
#959 = CARTESIAN_POINT ( 'NONE',  ( -0.5000000000000002220, 0.3499999999999999778, 0.2499999999999999445 ) ) ;
#960 = DIRECTION ( 'NONE',  ( 1.000000000000000000, -1.141265444721583511E-16, 0.0000000000000000000 ) ) ;
#961 = CARTESIAN_POINT ( 'NONE',  ( 0.4750000000000000888, 0.3249999999999998446, 0.2500000000000000000 ) ) ;
#962 = CARTESIAN_POINT ( 'NONE',  ( -0.3000000000000003220, 0.3250000000000000666, -0.1849999999999997757 ) ) ;
#963 = SURFACE_STYLE_FILL_AREA ( #521 ) ;
#964 =( NAMED_UNIT ( * ) PLANE_ANGLE_UNIT ( ) SI_UNIT ( $, .RADIAN. ) );
#965 = LINE ( 'NONE', #1289, #832 ) ;
#966 = ORIENTED_EDGE ( 'NONE', *, *, #1188, .F. ) ;
#967 = ADVANCED_FACE ( 'NONE', ( #549 ), #139, .F. ) ;
#968 = CARTESIAN_POINT ( 'NONE',  ( -0.2500000000000001665, 5.421010862427522170E-17, 0.2499999999999999445 ) ) ;
#969 =( GEOMETRIC_REPRESENTATION_CONTEXT ( 3 ) GLOBAL_UNCERTAINTY_ASSIGNED_CONTEXT ( ( #345 ) ) GLOBAL_UNIT_ASSIGNED_CONTEXT ( ( #598, #499, #746 ) ) REPRESENTATION_CONTEXT ( 'NONE', 'WORKASPACE' ) );
#970 = STYLED_ITEM ( 'NONE', ( #1253 ), #440 ) ;
#971 = CARTESIAN_POINT ( 'NONE',  ( -0.4750000000000000333, 0.02500000000000020262, 0.2500000000000000000 ) ) ;
#972 = ORIENTED_EDGE ( 'NONE', *, *, #982, .T. ) ;
#973 = CARTESIAN_POINT ( 'NONE',  ( 0.2500000000000001665, 2.567847250623560927E-17, 0.2499999999999999445 ) ) ;
#974 = EDGE_CURVE ( 'NONE', #1274, #352, #146, .T. ) ;
#975 = PRESENTATION_LAYER_ASSIGNMENT (  '', '', ( #582 ) ) ;
#976 = CARTESIAN_POINT ( 'NONE',  ( -0.5000000000000002220, -2.710505431213761085E-17, 0.2499999999999999445 ) ) ;
#977 = PRESENTATION_LAYER_ASSIGNMENT (  '', '', ( #87 ) ) ;
#978 = ORIENTED_EDGE ( 'NONE', *, *, #396, .T. ) ;
#979 = LINE ( 'NONE', #519, #644 ) ;
#980 = LINE ( 'NONE', #764, #1258 ) ;
#981 = DIRECTION ( 'NONE',  ( -5.421010862427521184E-16, 1.000000000000000000, 1.068631228020261032E-31 ) ) ;
#982 = EDGE_CURVE ( 'NONE', #1110, #398, #248, .T. ) ;
#983 = PLANE ( 'NONE',  #621 ) ;
#984 = LINE ( 'NONE', #25, #515 ) ;
#985 = VERTEX_POINT ( 'NONE', #887 ) ;
#986 = ADVANCED_FACE ( 'NONE', ( #668 ), #349, .F. ) ;
#987 = PRESENTATION_STYLE_ASSIGNMENT (( #544 ) ) ;
#988 = VECTOR ( 'NONE', #738, 1000.000000000000000 ) ;
#989 = CARTESIAN_POINT ( 'NONE',  ( -0.5000000000000002220, -2.710505431213761085E-17, 0.2499999999999999445 ) ) ;
#990 = ORIENTED_EDGE ( 'NONE', *, *, #3, .T. ) ;
#991 = DIRECTION ( 'NONE',  ( 1.000000000000000000, 5.421010862427521184E-16, -0.0000000000000000000 ) ) ;
#992 = CARTESIAN_POINT ( 'NONE',  ( -0.3000000000000002109, 0.3250000000000000111, -0.2500000000000000000 ) ) ;
#993 = ORIENTED_EDGE ( 'NONE', *, *, #1201, .T. ) ;
#994 = AXIS2_PLACEMENT_3D ( 'NONE', #386, #79, #1125 ) ;
#995 = FILL_AREA_STYLE_COLOUR ( '', #308 ) ;
#996 = EDGE_CURVE ( 'NONE', #679, #286, #1197, .T. ) ;
#997 = ADVANCED_FACE ( 'NONE', ( #795 ), #263, .F. ) ;
#998 = VERTEX_POINT ( 'NONE', #171 ) ;
#999 = FILL_AREA_STYLE ('',( #1207 ) ) ;
#1000 =( LENGTH_UNIT ( ) NAMED_UNIT ( * ) SI_UNIT ( .MILLI., .METRE. ) );
#1001 = EDGE_LOOP ( 'NONE', ( #200, #1164, #1312, #372 ) ) ;
#1002 =( LENGTH_UNIT ( ) NAMED_UNIT ( * ) SI_UNIT ( .MILLI., .METRE. ) );
#1003 = ADVANCED_FACE ( 'NONE', ( #1240 ), #1054, .F. ) ;
#1004 = ORIENTED_EDGE ( 'NONE', *, *, #1085, .F. ) ;
#1005 = PRESENTATION_STYLE_ASSIGNMENT (( #357 ) ) ;
#1006 = LINE ( 'NONE', #788, #1237 ) ;
#1007 = FACE_OUTER_BOUND ( 'NONE', #1092, .T. ) ;
#1008 = ORIENTED_EDGE ( 'NONE', *, *, #1252, .T. ) ;
#1009 =( NAMED_UNIT ( * ) PLANE_ANGLE_UNIT ( ) SI_UNIT ( $, .RADIAN. ) );
#1010 = VECTOR ( 'NONE', #1251, 1000.000000000000000 ) ;
#1011 = VECTOR ( 'NONE', #155, 1000.000000000000000 ) ;
#1012 = UNCERTAINTY_MEASURE_WITH_UNIT (LENGTH_MEASURE( 1.000000000000000082E-05 ), #279, 'distance_accuracy_value', 'NONE');
#1013 = PLANE ( 'NONE',  #694 ) ;
#1014 = ORIENTED_EDGE ( 'NONE', *, *, #297, .F. ) ;
#1015 = VECTOR ( 'NONE', #688, 1000.000000000000000 ) ;
#1016 = DIRECTION ( 'NONE',  ( 6.562276307149104695E-16, 1.000000000000000000, 0.0000000000000000000 ) ) ;
#1017 = DIRECTION ( 'NONE',  ( -1.000000000000000000, -4.274524912081044130E-31, 1.971276677246371519E-16 ) ) ;
#1018 = DIRECTION ( 'NONE',  ( 0.0000000000000000000, 0.0000000000000000000, 1.000000000000000000 ) ) ;
#1019 = ORIENTED_EDGE ( 'NONE', *, *, #338, .T. ) ;
#1020 = VECTOR ( 'NONE', #840, 1000.000000000000000 ) ;
#1021 = EDGE_LOOP ( 'NONE', ( #45, #555, #428, #95 ) ) ;
#1022 = DIRECTION ( 'NONE',  ( -1.141265444721583757E-16, -1.000000000000000000, 0.0000000000000000000 ) ) ;
#1023 = PLANE ( 'NONE',  #469 ) ;
#1024 = ORIENTED_EDGE ( 'NONE', *, *, #498, .T. ) ;
#1025 = ADVANCED_FACE ( 'NONE', ( #1249 ), #176, .F. ) ;
#1026 = CARTESIAN_POINT ( 'NONE',  ( 0.2999999999999998224, 0.3250000000000003997, 0.1849999999999999423 ) ) ;
#1027 = FACE_OUTER_BOUND ( 'NONE', #90, .T. ) ;
#1028 = VERTEX_POINT ( 'NONE', #727 ) ;
#1029 = CARTESIAN_POINT ( 'NONE',  ( 0.2999999999815372576, 0.3499999999999999778, 0.2499999999999998335 ) ) ;
#1030 = ORIENTED_EDGE ( 'NONE', *, *, #1212, .F. ) ;
#1031 = PLANE ( 'NONE',  #78 ) ;
#1032 = EDGE_CURVE ( 'NONE', #929, #985, #611, .T. ) ;
#1033 = VECTOR ( 'NONE', #1305, 1000.000000000000000 ) ;
#1034 = VERTEX_POINT ( 'NONE', #512 ) ;
#1035 = FILL_AREA_STYLE ('',( #952 ) ) ;
#1036 = AXIS2_PLACEMENT_3D ( 'NONE', #401, #91, #293 ) ;
#1037 = VECTOR ( 'NONE', #1172, 1000.000000000000000 ) ;
#1038 = FILL_AREA_STYLE ('',( #928 ) ) ;
#1039 = ORIENTED_EDGE ( 'NONE', *, *, #1085, .T. ) ;
#1040 = DIRECTION ( 'NONE',  ( 0.0000000000000000000, 0.0000000000000000000, -1.000000000000000000 ) ) ;
#1041 =( LENGTH_UNIT ( ) NAMED_UNIT ( * ) SI_UNIT ( .MILLI., .METRE. ) );
#1042 = EDGE_CURVE ( 'NONE', #527, #729, #104, .T. ) ;
#1043 = PRODUCT_CONTEXT ( 'NONE', #1159, 'mechanical' ) ;
#1044 = VECTOR ( 'NONE', #923, 1000.000000000000000 ) ;
#1045 = VERTEX_POINT ( 'NONE', #1029 ) ;
#1046 = DIRECTION ( 'NONE',  ( -0.0000000000000000000, 1.000000000000000000, 0.0000000000000000000 ) ) ;
#1047 = DIRECTION ( 'NONE',  ( 1.141265444721583757E-16, 1.000000000000000000, 0.0000000000000000000 ) ) ;
#1048 = ORIENTED_EDGE ( 'NONE', *, *, #777, .T. ) ;
#1049 = CARTESIAN_POINT ( 'NONE',  ( -0.9881246098625198204, 0.3249999999999996225, -0.2500000000000000000 ) ) ;
#1050 = EDGE_CURVE ( 'NONE', #495, #472, #496, .T. ) ;
#1051 = DIRECTION ( 'NONE',  ( 1.000000000000000000, 4.517509052022935470E-16, 2.258754526011467735E-16 ) ) ;
#1052 = VERTEX_POINT ( 'NONE', #588 ) ;
#1053 = EDGE_LOOP ( 'NONE', ( #304, #126, #336, #394, #156, #905, #949, #251 ) ) ;
#1054 = PLANE ( 'NONE',  #1036 ) ;
#1055 = LINE ( 'NONE', #106, #758 ) ;
#1056 = VECTOR ( 'NONE', #1018, 1000.000000000000000 ) ;
#1057 =( GEOMETRIC_REPRESENTATION_CONTEXT ( 3 ) GLOBAL_UNCERTAINTY_ASSIGNED_CONTEXT ( ( #157 ) ) GLOBAL_UNIT_ASSIGNED_CONTEXT ( ( #497, #933, #721 ) ) REPRESENTATION_CONTEXT ( 'NONE', 'WORKASPACE' ) );
#1058 = CARTESIAN_POINT ( 'NONE',  ( -0.3000000000000002109, 0.3250000000000000111, 0.1849999999999999423 ) ) ;
#1059 = ADVANCED_FACE ( 'NONE', ( #73 ), #271, .F. ) ;
#1060 = EDGE_LOOP ( 'NONE', ( #1315, #1369, #836, #993 ) ) ;
#1061 = PLANE ( 'NONE',  #608 ) ;
#1062 = CARTESIAN_POINT ( 'NONE',  ( 0.4750000000000000333, 0.02500000000000014710, 0.2500000000000000000 ) ) ;
#1063 = LINE ( 'NONE', #643, #763 ) ;
#1064 = CARTESIAN_POINT ( 'NONE',  ( 0.4199999999999998734, 0.3250000000000004552, -0.2499999999999997224 ) ) ;
#1065 = LINE ( 'NONE', #209, #162 ) ;
#1066 = ORIENTED_EDGE ( 'NONE', *, *, #934, .T. ) ;
#1067 = DIRECTION ( 'NONE',  ( 1.175494350822286982E-30, -2.168404344971008079E-15, -1.000000000000000000 ) ) ;
#1068 = ADVANCED_BREP_SHAPE_REPRESENTATION ( '03129205-32F5-423C-958B-7AA81A7405D0', ( #956, #15, #944, #42, #56 ), #947 ) ;
#1069 = ORIENTED_EDGE ( 'NONE', *, *, #281, .F. ) ;
#1070 = ADVANCED_FACE ( 'NONE', ( #831 ), #700, .F. ) ;
#1071 = LINE ( 'NONE', #968, #510 ) ;
#1072 = VECTOR ( 'NONE', #301, 1000.000000000000000 ) ;
#1073 = CARTESIAN_POINT ( 'NONE',  ( -0.4200000000000002620, 0.3250000000000000666, 0.2499999999999999445 ) ) ;
#1074 = EDGE_LOOP ( 'NONE', ( #103, #1100, #484, #266, #1333, #1019, #185, #823 ) ) ;
#1075 =( GEOMETRIC_REPRESENTATION_CONTEXT ( 3 ) GLOBAL_UNCERTAINTY_ASSIGNED_CONTEXT ( ( #724 ) ) GLOBAL_UNIT_ASSIGNED_CONTEXT ( ( #771, #444, #323 ) ) REPRESENTATION_CONTEXT ( 'NONE', 'WORKASPACE' ) );
#1076 = AXIS2_PLACEMENT_3D ( 'NONE', #1293, #745, #225 ) ;
#1077 = LINE ( 'NONE', #127, #1111 ) ;
#1078 = DIRECTION ( 'NONE',  ( -1.141265444721583511E-16, -1.000000000000000000, 0.0000000000000000000 ) ) ;
#1079 =( GEOMETRIC_REPRESENTATION_CONTEXT ( 3 ) GLOBAL_UNCERTAINTY_ASSIGNED_CONTEXT ( ( #1181 ) ) GLOBAL_UNIT_ASSIGNED_CONTEXT ( ( #1041, #500, #937 ) ) REPRESENTATION_CONTEXT ( 'NONE', 'WORKASPACE' ) );
#1080 = CARTESIAN_POINT ( 'NONE',  ( -0.2500000000000001665, 0.1749999999999999056, 0.2500000000000003331 ) ) ;
#1081 = LINE ( 'NONE', #779, #240 ) ;
#1082 = ORIENTED_EDGE ( 'NONE', *, *, #116, .F. ) ;
#1083 = FACE_OUTER_BOUND ( 'NONE', #1104, .T. ) ;
#1084 = LINE ( 'NONE', #213, #81 ) ;
#1085 = EDGE_CURVE ( 'NONE', #1168, #247, #1127, .T. ) ;
#1086 = CARTESIAN_POINT ( 'NONE',  ( -0.3000000000000002665, 0.3250000000000000666, 0.1849999999999999423 ) ) ;
#1087 = ORIENTED_EDGE ( 'NONE', *, *, #1241, .T. ) ;
#1088 =( NAMED_UNIT ( * ) PLANE_ANGLE_UNIT ( ) SI_UNIT ( $, .RADIAN. ) );
#1089 = LINE ( 'NONE', #350, #448 ) ;
#1090 = EDGE_CURVE ( 'NONE', #516, #842, #1265, .T. ) ;
#1091 = CARTESIAN_POINT ( 'NONE',  ( -0.4750000000000001443, 0.02500000000000000139, -0.2500000000000000555 ) ) ;
#1092 = EDGE_LOOP ( 'NONE', ( #552, #1324, #1299, #508 ) ) ;
#1093 =( GEOMETRIC_REPRESENTATION_CONTEXT ( 3 ) GLOBAL_UNCERTAINTY_ASSIGNED_CONTEXT ( ( #939 ) ) GLOBAL_UNIT_ASSIGNED_CONTEXT ( ( #1193, #1009, #578 ) ) REPRESENTATION_CONTEXT ( 'NONE', 'WORKASPACE' ) );
#1094 = VECTOR ( 'NONE', #366, 1000.000000000000000 ) ;
#1095 = VECTOR ( 'NONE', #769, 1000.000000000000000 ) ;
#1096 = SURFACE_SIDE_STYLE ('',( #664 ) ) ;
#1097 = VERTEX_POINT ( 'NONE', #1362 ) ;
#1098 = LINE ( 'NONE', #1185, #792 ) ;
#1099 = DIRECTION ( 'NONE',  ( -0.0000000000000000000, -0.0000000000000000000, 1.000000000000000000 ) ) ;
#1100 = ORIENTED_EDGE ( 'NONE', *, *, #628, .T. ) ;
#1101 = VERTEX_POINT ( 'NONE', #491 ) ;
#1102 = DIRECTION ( 'NONE',  ( 0.0000000000000000000, 0.0000000000000000000, -1.000000000000000000 ) ) ;
#1103 = CARTESIAN_POINT ( 'NONE',  ( 0.4750000000000000888, 0.3499999999999999778, -0.2500000000000001110 ) ) ;
#1104 = EDGE_LOOP ( 'NONE', ( #912, #1366, #1129, #891 ) ) ;
#1105 = ADVANCED_FACE ( 'NONE', ( #1352 ), #299, .F. ) ;
#1106 = CARTESIAN_POINT ( 'NONE',  ( -0.5000000000000002220, 0.3499999999999998668, -0.2499999999999999445 ) ) ;
#1107 = ORIENTED_EDGE ( 'NONE', *, *, #726, .F. ) ;
#1108 = DIRECTION ( 'NONE',  ( -2.168404344971008868E-16, 0.0000000000000000000, -1.000000000000000000 ) ) ;
#1109 = DIRECTION ( 'NONE',  ( 1.000000000000000000, 4.274524912081044130E-31, 0.0000000000000000000 ) ) ;
#1110 = VERTEX_POINT ( 'NONE', #961 ) ;
#1111 = VECTOR ( 'NONE', #14, 1000.000000000000000 ) ;
#1112 = ORIENTED_EDGE ( 'NONE', *, *, #982, .F. ) ;
#1113 = STYLED_ITEM ( 'NONE', ( #554 ), #1068 ) ;
#1114 = CARTESIAN_POINT ( 'NONE',  ( 0.9881246098625198204, 0.3249999999999995115, -0.2500000000000000000 ) ) ;
#1115 = FACE_OUTER_BOUND ( 'NONE', #477, .T. ) ;
#1116 = ORIENTED_EDGE ( 'NONE', *, *, #178, .F. ) ;
#1117 = CARTESIAN_POINT ( 'NONE',  ( -0.9881246098625198204, 0.3499999999999996447, 0.2499999999999999445 ) ) ;
#1118 = STYLED_ITEM ( 'NONE', ( #432 ), #188 ) ;
#1119 = ORIENTED_EDGE ( 'NONE', *, *, #1291, .T. ) ;
#1120 = CARTESIAN_POINT ( 'NONE',  ( 0.2999999999999998779, 0.3250000000000003997, -0.1849999999999997757 ) ) ;
#1121 = LINE ( 'NONE', #906, #839 ) ;
#1122 = ADVANCED_FACE ( 'NONE', ( #441 ), #425, .T. ) ;
#1123 = VERTEX_POINT ( 'NONE', #221 ) ;
#1124 = CARTESIAN_POINT ( 'NONE',  ( -0.4200000000000002620, 0.3250000000000000666, 0.1849999999999999700 ) ) ;
#1125 = DIRECTION ( 'NONE',  ( 0.0000000000000000000, 0.0000000000000000000, 1.000000000000000000 ) ) ;
#1126 = ORIENTED_EDGE ( 'NONE', *, *, #417, .T. ) ;
#1127 = LINE ( 'NONE', #927, #1180 ) ;
#1128 = CARTESIAN_POINT ( 'NONE',  ( 0.9881246098625198204, 0.3249999999999995115, -0.2500000000000000000 ) ) ;
#1129 = ORIENTED_EDGE ( 'NONE', *, *, #150, .F. ) ;
#1130 = CARTESIAN_POINT ( 'NONE',  ( -0.4200000000000002620, 0.3499999999999999223, 0.2499999999999999445 ) ) ;
#1131 = CARTESIAN_POINT ( 'NONE',  ( -0.3000000000000001554, 0.3250000000000000111, 0.2499999999999999445 ) ) ;
#1132 = AXIS2_PLACEMENT_3D ( 'NONE', #1307, #1331, #909 ) ;
#1133 = ORIENTED_EDGE ( 'NONE', *, *, #433, .T. ) ;
#1134 = VECTOR ( 'NONE', #818, 1000.000000000000000 ) ;
#1135 = DIRECTION ( 'NONE',  ( 1.000000000000000000, 0.0000000000000000000, 2.258754526011468228E-16 ) ) ;
#1136 = AXIS2_PLACEMENT_3D ( 'NONE', #310, #652, #316 ) ;
#1137 = SURFACE_SIDE_STYLE ('',( #184 ) ) ;
#1138 = PLANE ( 'NONE',  #1277 ) ;
#1139 = PRODUCT_DEFINITION_SHAPE ( 'NONE', 'NONE',  #702 ) ;
#1140 =( NAMED_UNIT ( * ) SI_UNIT ( $, .STERADIAN. ) SOLID_ANGLE_UNIT ( ) );
#1141 = EDGE_CURVE ( 'NONE', #523, #224, #1063, .T. ) ;
#1142 = ORIENTED_EDGE ( 'NONE', *, *, #505, .T. ) ;
#1143 = SURFACE_STYLE_FILL_AREA ( #1035 ) ;
#1144 = CARTESIAN_POINT ( 'NONE',  ( -0.3000000000000003220, 0.3250000000000000666, -0.1849999999999997757 ) ) ;
#1145 =( NAMED_UNIT ( * ) SI_UNIT ( $, .STERADIAN. ) SOLID_ANGLE_UNIT ( ) );
#1146 =( NAMED_UNIT ( * ) PLANE_ANGLE_UNIT ( ) SI_UNIT ( $, .RADIAN. ) );
#1147 = EDGE_CURVE ( 'NONE', #1123, #817, #1077, .T. ) ;
#1148 = ORIENTED_EDGE ( 'NONE', *, *, #569, .F. ) ;
#1149 = DIRECTION ( 'NONE',  ( -5.421010862427521184E-16, 1.000000000000000000, 1.068631228020261032E-31 ) ) ;
#1150 = CARTESIAN_POINT ( 'NONE',  ( -0.5000000000000002220, 5.421010862427522170E-17, -0.2499999999999999445 ) ) ;
#1151 = PLANE ( 'NONE',  #355 ) ;
#1152 = LINE ( 'NONE', #438, #492 ) ;
#1153 = DIRECTION ( 'NONE',  ( 1.000000000000000000, 0.0000000000000000000, -0.0000000000000000000 ) ) ;
#1154 = CARTESIAN_POINT ( 'NONE',  ( -0.4200000000000002620, 0.3250000000000000666, -0.2499999999999997224 ) ) ;
#1155 = DIRECTION ( 'NONE',  ( 0.0000000000000000000, 0.0000000000000000000, 1.000000000000000000 ) ) ;
#1156 = PRESENTATION_LAYER_ASSIGNMENT (  '', '', ( #1113 ) ) ;
#1157 = CARTESIAN_POINT ( 'NONE',  ( 0.3000000000000002665, 0.3499999999999999223, 0.1849999999999999423 ) ) ;
#1158 = ORIENTED_EDGE ( 'NONE', *, *, #925, .T. ) ;
#1159 = APPLICATION_CONTEXT ( 'automotive_design' ) ;
#1160 = CARTESIAN_POINT ( 'NONE',  ( -0.5000000000000002220, 5.421010862427522170E-17, 0.2499999999999999445 ) ) ;
#1161 = MECHANICAL_DESIGN_GEOMETRIC_PRESENTATION_REPRESENTATION (  '', ( #582 ), #1368 ) ;
#1162 = CARTESIAN_POINT ( 'NONE',  ( 0.2500000000000001665, 0.02499999999999992853, 0.2499999999999998890 ) ) ;
#1163 = EDGE_CURVE ( 'NONE', #1243, #1101, #206, .T. ) ;
#1164 = ORIENTED_EDGE ( 'NONE', *, *, #463, .F. ) ;
#1165 = CARTESIAN_POINT ( 'NONE',  ( -0.2500000000000001665, 0.02499999999999995628, 0.2499999999999998890 ) ) ;
#1166 = LINE ( 'NONE', #973, #577 ) ;
#1167 = PLANE ( 'NONE',  #1296 ) ;
#1168 = VERTEX_POINT ( 'NONE', #111 ) ;
#1169 = ADVANCED_FACE ( 'NONE', ( #857 ), #983, .F. ) ;
#1170 = DIRECTION ( 'NONE',  ( 0.0000000000000000000, 0.0000000000000000000, 1.000000000000000000 ) ) ;
#1171 = EDGE_CURVE ( 'NONE', #780, #416, #1071, .T. ) ;
#1172 = DIRECTION ( 'NONE',  ( 0.0000000000000000000, 0.0000000000000000000, 1.000000000000000000 ) ) ;
#1173 =( GEOMETRIC_REPRESENTATION_CONTEXT ( 3 ) GLOBAL_UNCERTAINTY_ASSIGNED_CONTEXT ( ( #1194 ) ) GLOBAL_UNIT_ASSIGNED_CONTEXT ( ( #1002, #1313, #1219 ) ) REPRESENTATION_CONTEXT ( 'NONE', 'WORKASPACE' ) );
#1174 = CARTESIAN_POINT ( 'NONE',  ( -0.4200000000000002620, 0.3250000000000000666, -0.2499999999999997224 ) ) ;
#1175 = PRESENTATION_LAYER_ASSIGNMENT (  '', '', ( #404 ) ) ;
#1176 = VECTOR ( 'NONE', #638, 1000.000000000000000 ) ;
#1177 = LINE ( 'NONE', #235, #10 ) ;
#1178 = EDGE_LOOP ( 'NONE', ( #47, #1082, #1372, #1030 ) ) ;
#1179 = VECTOR ( 'NONE', #581, 1000.000000000000000 ) ;
#1180 = VECTOR ( 'NONE', #595, 1000.000000000000000 ) ;
#1181 = UNCERTAINTY_MEASURE_WITH_UNIT (LENGTH_MEASURE( 1.000000000000000082E-05 ), #1041, 'distance_accuracy_value', 'NONE');
#1182 = ADVANCED_FACE ( 'NONE', ( #1287 ), #529, .F. ) ;
#1183 = PLANE ( 'NONE',  #1076 ) ;
#1184 = VECTOR ( 'NONE', #292, 1000.000000000000000 ) ;
#1185 = CARTESIAN_POINT ( 'NONE',  ( -0.4200000000000002620, 0.3250000000000000666, -0.1849999999999998035 ) ) ;
#1186 = CARTESIAN_POINT ( 'NONE',  ( -0.4750000000000000333, 0.02500000000000020262, -0.2500000000000000000 ) ) ;
#1187 = ORIENTED_EDGE ( 'NONE', *, *, #610, .F. ) ;
#1188 = EDGE_CURVE ( 'NONE', #8, #149, #979, .T. ) ;
#1189 = PLANE ( 'NONE',  #140 ) ;
#1190 = DIRECTION ( 'NONE',  ( -1.000000000000000000, -5.421010862427521184E-16, 0.0000000000000000000 ) ) ;
#1191 = CARTESIAN_POINT ( 'NONE',  ( -0.4200000000000002620, 0.3499999999999999223, 0.1849999999999999700 ) ) ;
#1192 = ORIENTED_EDGE ( 'NONE', *, *, #1278, .F. ) ;
#1193 =( LENGTH_UNIT ( ) NAMED_UNIT ( * ) SI_UNIT ( .MILLI., .METRE. ) );
#1194 = UNCERTAINTY_MEASURE_WITH_UNIT (LENGTH_MEASURE( 1.000000000000000082E-05 ), #1002, 'distance_accuracy_value', 'NONE');
#1195 = DIRECTION ( 'NONE',  ( -1.000000000000000000, 6.562276307149104695E-16, 0.0000000000000000000 ) ) ;
#1196 = EDGE_LOOP ( 'NONE', ( #490, #1306, #537, #585, #365, #725, #1192, #1214 ) ) ;
#1197 = LINE ( 'NONE', #556, #855 ) ;
#1198 = AXIS2_PLACEMENT_3D ( 'NONE', #875, #1300, #744 ) ;
#1199 = CARTESIAN_POINT ( 'NONE',  ( -0.4750000000000001443, 0.02500000000000000139, 0.2499999999999999445 ) ) ;
#1200 = FACE_OUTER_BOUND ( 'NONE', #270, .T. ) ;
#1201 = EDGE_CURVE ( 'NONE', #1338, #165, #1374, .T. ) ;
#1202 = ORIENTED_EDGE ( 'NONE', *, *, #1212, .T. ) ;
#1203 = FACE_OUTER_BOUND ( 'NONE', #1074, .T. ) ;
#1204 = PRODUCT_DEFINITION_FORMATION_WITH_SPECIFIED_SOURCE ( 'ANY', '', #211, .NOT_KNOWN. ) ;
#1205 = CARTESIAN_POINT ( 'NONE',  ( -0.5000000000000002220, 0.3499999999999998668, -0.2499999999999999445 ) ) ;
#1206 = ORIENTED_EDGE ( 'NONE', *, *, #1171, .F. ) ;
#1207 = FILL_AREA_STYLE_COLOUR ( '', #1228 ) ;
#1208 = CARTESIAN_POINT ( 'NONE',  ( -0.4749999999999998668, 0.02500000000000001180, -0.2500000000000000000 ) ) ;
#1209 = DIRECTION ( 'NONE',  ( -0.0000000000000000000, 1.000000000000000000, -0.0000000000000000000 ) ) ;
#1210 = ORIENTED_EDGE ( 'NONE', *, *, #799, .T. ) ;
#1211 = VECTOR ( 'NONE', #806, 1000.000000000000000 ) ;
#1212 = EDGE_CURVE ( 'NONE', #145, #826, #1166, .T. ) ;
#1213 = LINE ( 'NONE', #246, #28 ) ;
#1214 = ORIENTED_EDGE ( 'NONE', *, *, #799, .F. ) ;
#1215 = CARTESIAN_POINT ( 'NONE',  ( 0.9881246098625198204, 0.3499999999999995337, -0.2500000000000000000 ) ) ;
#1216 = CARTESIAN_POINT ( 'NONE',  ( -0.2500000000000001665, 0.02500000000000025466, -0.2500000000000000000 ) ) ;
#1217 = DIRECTION ( 'NONE',  ( 0.0000000000000000000, -1.000000000000000000, 0.0000000000000000000 ) ) ;
#1218 = ORIENTED_EDGE ( 'NONE', *, *, #38, .T. ) ;
#1219 =( NAMED_UNIT ( * ) SI_UNIT ( $, .STERADIAN. ) SOLID_ANGLE_UNIT ( ) );
#1220 = ADVANCED_FACE ( 'NONE', ( #1282 ), #1183, .T. ) ;
#1221 = CARTESIAN_POINT ( 'NONE',  ( -0.3000000000000001554, 0.3250000000000000111, 0.2499999999999999445 ) ) ;
#1222 = ADVANCED_FACE ( 'NONE', ( #217 ), #848, .F. ) ;
#1223 = ORIENTED_EDGE ( 'NONE', *, *, #117, .F. ) ;
#1224 = CARTESIAN_POINT ( 'NONE',  ( 500000.0000000000582, 0.3499999999999999778, 0.2499999999014360652 ) ) ;
#1225 = ORIENTED_EDGE ( 'NONE', *, *, #750, .F. ) ;
#1226 = DIRECTION ( 'NONE',  ( -1.000000000000000000, 1.141265444721583511E-16, 0.0000000000000000000 ) ) ;
#1227 = VECTOR ( 'NONE', #12, 1000.000000000000000 ) ;
#1228 = COLOUR_RGB ( '',0.8980392156862745390, 0.9176470588235293713, 0.9294117647058823817 ) ;
#1229 = SURFACE_STYLE_USAGE ( .BOTH. , #914 ) ;
#1230 = CARTESIAN_POINT ( 'NONE',  ( 0.0000000000000000000, 0.0000000000000000000, 0.0000000000000000000 ) ) ;
#1231 = EDGE_CURVE ( 'NONE', #8, #1243, #1084, .T. ) ;
#1232 = ORIENTED_EDGE ( 'NONE', *, *, #884, .T. ) ;
#1233 = CARTESIAN_POINT ( 'NONE',  ( -0.3000000000000002665, 0.3499999999999999778, 0.1849999999999999423 ) ) ;
#1234 = EDGE_LOOP ( 'NONE', ( #1158, #711, #216, #896 ) ) ;
#1235 = DIRECTION ( 'NONE',  ( -0.0000000000000000000, -0.0000000000000000000, 1.000000000000000000 ) ) ;
#1236 = VECTOR ( 'NONE', #535, 1000.000000000000000 ) ;
#1237 = VECTOR ( 'NONE', #819, 1000.000000000000000 ) ;
#1238 = CARTESIAN_POINT ( 'NONE',  ( 0.2500000000000001665, 0.1749999999999998779, 0.2500000000000003331 ) ) ;
#1239 = ORIENTED_EDGE ( 'NONE', *, *, #733, .F. ) ;
#1240 = FACE_OUTER_BOUND ( 'NONE', #1053, .T. ) ;
#1241 = EDGE_CURVE ( 'NONE', #1338, #926, #1272, .T. ) ;
#1242 = LINE ( 'NONE', #707, #903 ) ;
#1243 = VERTEX_POINT ( 'NONE', #430 ) ;
#1244 = EDGE_CURVE ( 'NONE', #691, #36, #862, .T. ) ;
#1245 = DIRECTION ( 'NONE',  ( 0.0000000000000000000, 0.0000000000000000000, -1.000000000000000000 ) ) ;
#1246 = FILL_AREA_STYLE ('',( #393 ) ) ;
#1247 =( NAMED_UNIT ( * ) PLANE_ANGLE_UNIT ( ) SI_UNIT ( $, .RADIAN. ) );
#1248 = ORIENTED_EDGE ( 'NONE', *, *, #1309, .F. ) ;
#1249 = FACE_OUTER_BOUND ( 'NONE', #614, .T. ) ;
#1250 = CARTESIAN_POINT ( 'NONE',  ( 0.2999999999999998779, 0.3500000000000003109, -0.1849999999999997757 ) ) ;
#1251 = DIRECTION ( 'NONE',  ( 0.0000000000000000000, 0.0000000000000000000, 1.000000000000000000 ) ) ;
#1252 = EDGE_CURVE ( 'NONE', #548, #1110, #305, .T. ) ;
#1253 = PRESENTATION_STYLE_ASSIGNMENT (( #710 ) ) ;
#1254 = VECTOR ( 'NONE', #1155, 1000.000000000000000 ) ;
#1255 = AXIS2_PLACEMENT_3D ( 'NONE', #51, #135, #19 ) ;
#1256 = CARTESIAN_POINT ( 'NONE',  ( 0.4199999999999998179, 0.3250000000000004552, 0.1849999999999999700 ) ) ;
#1257 = DIRECTION ( 'NONE',  ( -6.562276307149104695E-16, -1.000000000000000000, 0.0000000000000000000 ) ) ;
#1258 = VECTOR ( 'NONE', #312, 1000.000000000000000 ) ;
#1259 = DIRECTION ( 'NONE',  ( 1.141265444721583757E-16, -0.0000000000000000000, 1.000000000000000000 ) ) ;
#1260 = AXIS2_PLACEMENT_3D ( 'NONE', #330, #1153, #532 ) ;
#1261 = DIRECTION ( 'NONE',  ( -5.421010862427521184E-16, 1.000000000000000000, 1.068631228020261032E-31 ) ) ;
#1262 = ADVANCED_FACE ( 'NONE', ( #731 ), #1013, .T. ) ;
#1263 = VECTOR ( 'NONE', #1102, 1000.000000000000000 ) ;
#1264 = EDGE_LOOP ( 'NONE', ( #957, #589, #307, #845 ) ) ;
#1265 = LINE ( 'NONE', #96, #667 ) ;
#1266 = LINE ( 'NONE', #626, #1010 ) ;
#1267 = LINE ( 'NONE', #1073, #289 ) ;
#1268 = VERTEX_POINT ( 'NONE', #467 ) ;
#1269 = DIRECTION ( 'NONE',  ( 5.421010862427521184E-16, -1.000000000000000000, 0.0000000000000000000 ) ) ;
#1270 = EDGE_LOOP ( 'NONE', ( #966, #1336, #1335, #71 ) ) ;
#1271 = EDGE_CURVE ( 'NONE', #1110, #523, #1308, .T. ) ;
#1272 = LINE ( 'NONE', #9, #1279 ) ;
#1273 = FACE_OUTER_BOUND ( 'NONE', #434, .T. ) ;
#1274 = VERTEX_POINT ( 'NONE', #158 ) ;
#1275 = DIRECTION ( 'NONE',  ( -1.141265444721583757E-16, -1.000000000000000000, 0.0000000000000000000 ) ) ;
#1276 = FACE_OUTER_BOUND ( 'NONE', #511, .T. ) ;
#1277 = AXIS2_PLACEMENT_3D ( 'NONE', #922, #1226, #1245 ) ;
#1278 = EDGE_CURVE ( 'NONE', #1097, #352, #454, .T. ) ;
#1279 = VECTOR ( 'NONE', #631, 1000.000000000000000 ) ;
#1280 = LINE ( 'NONE', #971, #915 ) ;
#1281 = VERTEX_POINT ( 'NONE', #1106 ) ;
#1282 = FACE_OUTER_BOUND ( 'NONE', #369, .T. ) ;
#1283 = VECTOR ( 'NONE', #659, 1000.000000000000000 ) ;
#1284 = COLOUR_RGB ( '',0.8980392156862745390, 0.9176470588235293713, 0.9294117647058823817 ) ;
#1285 = FILL_AREA_STYLE_COLOUR ( '', #918 ) ;
#1286 = ORIENTED_EDGE ( 'NONE', *, *, #62, .F. ) ;
#1287 = FACE_OUTER_BOUND ( 'NONE', #152, .T. ) ;
#1288 = DIRECTION ( 'NONE',  ( -4.274524912081044130E-31, 1.000000000000000000, 9.268898392043355874E-47 ) ) ;
#1289 = CARTESIAN_POINT ( 'NONE',  ( -0.9881246098625198204, 0.3249999999999996225, 0.2500000000000000000 ) ) ;
#1290 = VERTEX_POINT ( 'NONE', #989 ) ;
#1291 = EDGE_CURVE ( 'NONE', #691, #1045, #1213, .T. ) ;
#1292 = CARTESIAN_POINT ( 'NONE',  ( 0.4750000000000000888, 0.3499999999999999778, -0.2500000000000001110 ) ) ;
#1293 = CARTESIAN_POINT ( 'NONE',  ( -0.5000000000000002220, 0.3499999999999998668, 0.2499999999999999445 ) ) ;
#1294 = LINE ( 'NONE', #24, #509 ) ;
#1295 = AXIS2_PLACEMENT_3D ( 'NONE', #612, #112, #713 ) ;
#1296 = AXIS2_PLACEMENT_3D ( 'NONE', #133, #1078, #539 ) ;
#1297 = LINE ( 'NONE', #1080, #1236 ) ;
#1298 = PLANE ( 'NONE',  #571 ) ;
#1299 = ORIENTED_EDGE ( 'NONE', *, *, #1188, .T. ) ;
#1300 = DIRECTION ( 'NONE',  ( 0.0000000000000000000, -1.000000000000000000, 0.0000000000000000000 ) ) ;
#1301 = EDGE_CURVE ( 'NONE', #1034, #224, #904, .T. ) ;
#1302 = UNCERTAINTY_MEASURE_WITH_UNIT (LENGTH_MEASURE( 1.000000000000000082E-05 ), #723, 'distance_accuracy_value', 'NONE');
#1303 = DIRECTION ( 'NONE',  ( -1.000000000000000000, 6.562276307149104695E-16, 0.0000000000000000000 ) ) ;
#1304 = FACE_OUTER_BOUND ( 'NONE', #804, .T. ) ;
#1305 = DIRECTION ( 'NONE',  ( -1.000000000000000000, -4.517509052022935470E-16, 2.258754526011467735E-16 ) ) ;
#1306 = ORIENTED_EDGE ( 'NONE', *, *, #318, .F. ) ;
#1307 = CARTESIAN_POINT ( 'NONE',  ( 0.2500000000000001665, 0.01250000000000005794, 0.0000000000000000000 ) ) ;
#1308 = LINE ( 'NONE', #151, #207 ) ;
#1309 = EDGE_CURVE ( 'NONE', #1268, #493, #895, .T. ) ;
#1310 = ORIENTED_EDGE ( 'NONE', *, *, #740, .F. ) ;
#1311 = CARTESIAN_POINT ( 'NONE',  ( 0.2500000000000001665, 0.02500000000000022690, -0.2500000000000000000 ) ) ;
#1312 = ORIENTED_EDGE ( 'NONE', *, *, #1373, .T. ) ;
#1313 =( NAMED_UNIT ( * ) PLANE_ANGLE_UNIT ( ) SI_UNIT ( $, .RADIAN. ) );
#1314 = CARTESIAN_POINT ( 'NONE',  ( 0.4199999999999998734, 0.3500000000000003664, -0.2499999999999997224 ) ) ;
#1315 = ORIENTED_EDGE ( 'NONE', *, *, #62, .T. ) ;
#1316 = CARTESIAN_POINT ( 'NONE',  ( 0.5000000000000002220, -2.853163611803991980E-18, -0.2499999999999999445 ) ) ;
#1317 = EDGE_CURVE ( 'NONE', #1274, #929, #793, .T. ) ;
#1318 =( NAMED_UNIT ( * ) SI_UNIT ( $, .STERADIAN. ) SOLID_ANGLE_UNIT ( ) );
#1319 = CARTESIAN_POINT ( 'NONE',  ( 0.4750000000000000333, 0.02500000000000014710, 0.2500000000000000000 ) ) ;
#1320 = ORIENTED_EDGE ( 'NONE', *, *, #498, .F. ) ;
#1321 = COLOUR_RGB ( '',0.8980392156862745390, 0.9176470588235293713, 0.9294117647058823817 ) ;
#1322 = AXIS2_PLACEMENT_3D ( 'NONE', #1325, #239, #461 ) ;
#1323 = SURFACE_SIDE_STYLE ('',( #353 ) ) ;
#1324 = ORIENTED_EDGE ( 'NONE', *, *, #196, .T. ) ;
#1325 = CARTESIAN_POINT ( 'NONE',  ( -0.3000000000000001554, 0.3250000000000000111, 0.2499999999999999445 ) ) ;
#1326 = PLANE ( 'NONE',  #33 ) ;
#1327 = EDGE_CURVE ( 'NONE', #36, #1101, #371, .T. ) ;
#1328 = PLANE ( 'NONE',  #187 ) ;
#1329 = ORIENTED_EDGE ( 'NONE', *, *, #584, .F. ) ;
#1330 = VECTOR ( 'NONE', #981, 1000.000000000000000 ) ;
#1331 = DIRECTION ( 'NONE',  ( -1.000000000000000000, 1.141265444721583757E-16, 0.0000000000000000000 ) ) ;
#1332 = UNCERTAINTY_MEASURE_WITH_UNIT (LENGTH_MEASURE( 1.000000000000000082E-05 ), #198, 'distance_accuracy_value', 'NONE');
#1333 = ORIENTED_EDGE ( 'NONE', *, *, #958, .T. ) ;
#1334 = DIRECTION ( 'NONE',  ( 1.000000000000000000, -6.562276307149104695E-16, 0.0000000000000000000 ) ) ;
#1335 = ORIENTED_EDGE ( 'NONE', *, *, #1163, .T. ) ;
#1336 = ORIENTED_EDGE ( 'NONE', *, *, #1231, .T. ) ;
#1337 =( LENGTH_UNIT ( ) NAMED_UNIT ( * ) SI_UNIT ( .MILLI., .METRE. ) );
#1338 = VERTEX_POINT ( 'NONE', #39 ) ;
#1339 = FILL_AREA_STYLE ('',( #99 ) ) ;
#1340 = VECTOR ( 'NONE', #85, 1000.000000000000000 ) ;
#1341 = AXIS2_PLACEMENT_3D ( 'NONE', #1114, #1016, #1334 ) ;
#1342 = PLANE ( 'NONE',  #994 ) ;
#1343 = EDGE_CURVE ( 'NONE', #1281, #468, #890, .T. ) ;
#1344 = AXIS2_PLACEMENT_3D ( 'NONE', #1120, #712, #706 ) ;
#1345 = ORIENTED_EDGE ( 'NONE', *, *, #505, .F. ) ;
#1346 =( NAMED_UNIT ( * ) PLANE_ANGLE_UNIT ( ) SI_UNIT ( $, .RADIAN. ) );
#1347 =( NAMED_UNIT ( * ) PLANE_ANGLE_UNIT ( ) SI_UNIT ( $, .RADIAN. ) );
#1348 = ORIENTED_EDGE ( 'NONE', *, *, #49, .F. ) ;
#1349 = CARTESIAN_POINT ( 'NONE',  ( -0.5000000000000002220, 5.421010862427522170E-17, -0.2499999999999999445 ) ) ;
#1350 = LINE ( 'NONE', #864, #882 ) ;
#1351 = ORIENTED_EDGE ( 'NONE', *, *, #1231, .F. ) ;
#1352 = FACE_OUTER_BOUND ( 'NONE', #1234, .T. ) ;
#1353 = FACE_OUTER_BOUND ( 'NONE', #648, .T. ) ;
#1354 = ORIENTED_EDGE ( 'NONE', *, *, #642, .T. ) ;
#1355 = ORIENTED_EDGE ( 'NONE', *, *, #144, .F. ) ;
#1356 = DIRECTION ( 'NONE',  ( 1.000000000000000000, 5.421010862427521184E-16, 0.0000000000000000000 ) ) ;
#1357 = SURFACE_SIDE_STYLE ('',( #963 ) ) ;
#1358 = CARTESIAN_POINT ( 'NONE',  ( -0.3000000000000002109, 0.3499999999999999778, 0.2499999999999999445 ) ) ;
#1359 =( NAMED_UNIT ( * ) PLANE_ANGLE_UNIT ( ) SI_UNIT ( $, .RADIAN. ) );
#1360 = VECTOR ( 'NONE', #276, 1000.000000000000000 ) ;
#1361 = ORIENTED_EDGE ( 'NONE', *, *, #89, .T. ) ;
#1362 = CARTESIAN_POINT ( 'NONE',  ( 0.4199999999999998734, 0.3500000000000003664, -0.1849999999999998035 ) ) ;
#1363 = SURFACE_SIDE_STYLE ('',( #849 ) ) ;
#1364 = CARTESIAN_POINT ( 'NONE',  ( 0.3000000000000002665, 0.3499999999999999223, 0.2499999999999999445 ) ) ;
#1365 = CARTESIAN_POINT ( 'NONE',  ( 0.4750000000000000888, 0.3250000000000000111, -0.2500000000000001110 ) ) ;
#1366 = ORIENTED_EDGE ( 'NONE', *, *, #996, .F. ) ;
#1367 = PLANE ( 'NONE',  #275 ) ;
#1368 =( GEOMETRIC_REPRESENTATION_CONTEXT ( 3 ) GLOBAL_UNCERTAINTY_ASSIGNED_CONTEXT ( ( #1302 ) ) GLOBAL_UNIT_ASSIGNED_CONTEXT ( ( #723, #1359, #1140 ) ) REPRESENTATION_CONTEXT ( 'NONE', 'WORKASPACE' ) );
#1369 = ORIENTED_EDGE ( 'NONE', *, *, #150, .T. ) ;
#1370 = DIRECTION ( 'NONE',  ( -0.0000000000000000000, -0.0000000000000000000, 1.000000000000000000 ) ) ;
#1371 = DIRECTION ( 'NONE',  ( -1.000000000000000000, -4.517509052022935470E-16, -2.258754526011467735E-16 ) ) ;
#1372 = ORIENTED_EDGE ( 'NONE', *, *, #338, .F. ) ;
#1373 = EDGE_CURVE ( 'NONE', #1268, #247, #232, .T. ) ;
#1374 = LINE ( 'NONE', #636, #988 ) ;
#1375 = DIRECTION ( 'NONE',  ( 1.000000000000000000, -5.706327223607918787E-17, 0.0000000000000000000 ) ) ;
ENDSEC;
END-ISO-10303-21;
